<?xml version="1.0" encoding="UTF-8"?>
<svg xmlns="http://www.w3.org/2000/svg" xmlns:xlink="http://www.w3.org/1999/xlink" width="854" height="480" viewBox="0 0 854 480">
<defs>
<g>
<g id="glyph-0-0">
<path d="M 1.78125 -2.34375 L 4.15625 -2.34375 L 2.96875 -5.4375 Z M -0.046875 0 L -0.046875 -0.453125 L 0.515625 -0.453125 L 2.828125 -6.484375 L 3.5625 -6.484375 L 5.875 -0.453125 L 6.5 -0.453125 L 6.5 0 L 4.15625 0 L 4.15625 -0.453125 L 4.875 -0.453125 L 4.328125 -1.890625 L 1.609375 -1.890625 L 1.0625 -0.453125 L 1.765625 -0.453125 L 1.765625 0 Z "/>
</g>
<g id="glyph-0-1">
<path d="M 2.203125 -3.296875 L 3.34375 -3.296875 C 3.769531 -3.296875 4.097656 -3.410156 4.328125 -3.640625 C 4.554688 -3.878906 4.671875 -4.21875 4.671875 -4.65625 C 4.671875 -5.101562 4.554688 -5.441406 4.328125 -5.671875 C 4.097656 -5.898438 3.769531 -6.015625 3.34375 -6.015625 L 2.203125 -6.015625 Z M 0.484375 0 L 0.484375 -0.453125 L 1.3125 -0.453125 L 1.3125 -6.015625 L 0.484375 -6.015625 L 0.484375 -6.484375 L 3.5625 -6.484375 C 4.207031 -6.484375 4.71875 -6.316406 5.09375 -5.984375 C 5.476562 -5.660156 5.671875 -5.21875 5.671875 -4.65625 C 5.671875 -4.101562 5.476562 -3.660156 5.09375 -3.328125 C 4.71875 -2.992188 4.207031 -2.828125 3.5625 -2.828125 L 2.203125 -2.828125 L 2.203125 -0.453125 L 3.203125 -0.453125 L 3.203125 0 Z "/>
</g>
<g id="glyph-0-2">
</g>
<g id="glyph-0-3">
<path d="M 6.265625 -1.71875 C 6.078125 -1.113281 5.753906 -0.65625 5.296875 -0.34375 C 4.847656 -0.03125 4.28125 0.125 3.59375 0.125 C 3.175781 0.125 2.785156 0.0507812 2.421875 -0.09375 C 2.054688 -0.238281 1.734375 -0.453125 1.453125 -0.734375 C 1.128906 -1.054688 0.890625 -1.421875 0.734375 -1.828125 C 0.578125 -2.242188 0.5 -2.710938 0.5 -3.234375 C 0.5 -4.242188 0.789062 -5.054688 1.375 -5.671875 C 1.957031 -6.285156 2.722656 -6.59375 3.671875 -6.59375 C 4.023438 -6.59375 4.398438 -6.546875 4.796875 -6.453125 C 5.203125 -6.367188 5.632812 -6.226562 6.09375 -6.03125 L 6.09375 -4.546875 L 5.59375 -4.546875 C 5.488281 -5.085938 5.273438 -5.488281 4.953125 -5.75 C 4.628906 -6.007812 4.175781 -6.140625 3.59375 -6.140625 C 2.90625 -6.140625 2.382812 -5.890625 2.03125 -5.390625 C 1.675781 -4.898438 1.5 -4.179688 1.5 -3.234375 C 1.5 -2.285156 1.675781 -1.566406 2.03125 -1.078125 C 2.382812 -0.585938 2.90625 -0.34375 3.59375 -0.34375 C 4.082031 -0.34375 4.484375 -0.457031 4.796875 -0.6875 C 5.109375 -0.914062 5.332031 -1.257812 5.46875 -1.71875 Z "/>
</g>
<g id="glyph-0-4">
<path d="M 0.359375 0 L 0.359375 -0.453125 L 1.078125 -0.453125 L 1.078125 -6.296875 L 0.328125 -6.296875 L 0.328125 -6.75 L 1.890625 -6.75 L 1.890625 -3.796875 C 2.035156 -4.109375 2.222656 -4.34375 2.453125 -4.5 C 2.691406 -4.65625 2.96875 -4.734375 3.28125 -4.734375 C 3.789062 -4.734375 4.164062 -4.585938 4.40625 -4.296875 C 4.644531 -4.003906 4.765625 -3.550781 4.765625 -2.9375 L 4.765625 -0.453125 L 5.484375 -0.453125 L 5.484375 0 L 3.265625 0 L 3.265625 -0.453125 L 3.96875 -0.453125 L 3.96875 -2.6875 C 3.96875 -3.25 3.894531 -3.632812 3.75 -3.84375 C 3.613281 -4.050781 3.367188 -4.15625 3.015625 -4.15625 C 2.648438 -4.15625 2.367188 -4.019531 2.171875 -3.75 C 1.984375 -3.476562 1.890625 -3.082031 1.890625 -2.5625 L 1.890625 -0.453125 L 2.578125 -0.453125 L 2.578125 0 Z "/>
</g>
<g id="glyph-0-5">
<path d="M 4.8125 -2.21875 L 1.375 -2.21875 L 1.375 -2.1875 C 1.375 -1.5625 1.488281 -1.085938 1.71875 -0.765625 C 1.957031 -0.453125 2.304688 -0.296875 2.765625 -0.296875 C 3.117188 -0.296875 3.40625 -0.390625 3.625 -0.578125 C 3.851562 -0.765625 4.007812 -1.035156 4.09375 -1.390625 L 4.734375 -1.390625 C 4.609375 -0.890625 4.375 -0.507812 4.03125 -0.25 C 3.6875 0 3.238281 0.125 2.6875 0.125 C 2.007812 0.125 1.460938 -0.09375 1.046875 -0.53125 C 0.640625 -0.976562 0.4375 -1.570312 0.4375 -2.3125 C 0.4375 -3.039062 0.640625 -3.625 1.046875 -4.0625 C 1.453125 -4.507812 1.976562 -4.734375 2.625 -4.734375 C 3.320312 -4.734375 3.859375 -4.519531 4.234375 -4.09375 C 4.609375 -3.664062 4.800781 -3.039062 4.8125 -2.21875 Z M 3.875 -2.6875 C 3.851562 -3.21875 3.738281 -3.617188 3.53125 -3.890625 C 3.320312 -4.171875 3.019531 -4.3125 2.625 -4.3125 C 2.257812 -4.3125 1.972656 -4.171875 1.765625 -3.890625 C 1.554688 -3.617188 1.425781 -3.21875 1.375 -2.6875 Z "/>
</g>
<g id="glyph-0-6">
<path d="M 4.609375 -3.71875 C 4.765625 -4.050781 4.957031 -4.300781 5.1875 -4.46875 C 5.425781 -4.644531 5.707031 -4.734375 6.03125 -4.734375 C 6.507812 -4.734375 6.867188 -4.582031 7.109375 -4.28125 C 7.347656 -3.988281 7.46875 -3.539062 7.46875 -2.9375 L 7.46875 -0.453125 L 8.1875 -0.453125 L 8.1875 0 L 5.96875 0 L 5.96875 -0.453125 L 6.671875 -0.453125 L 6.671875 -2.84375 C 6.671875 -3.3125 6.597656 -3.644531 6.453125 -3.84375 C 6.316406 -4.050781 6.085938 -4.15625 5.765625 -4.15625 C 5.410156 -4.15625 5.140625 -4.019531 4.953125 -3.75 C 4.765625 -3.476562 4.671875 -3.082031 4.671875 -2.5625 L 4.671875 -0.453125 L 5.375 -0.453125 L 5.375 0 L 3.1875 0 L 3.1875 -0.453125 L 3.875 -0.453125 L 3.875 -2.875 C 3.875 -3.332031 3.800781 -3.660156 3.65625 -3.859375 C 3.519531 -4.054688 3.296875 -4.15625 2.984375 -4.15625 C 2.617188 -4.15625 2.34375 -4.019531 2.15625 -3.75 C 1.976562 -3.476562 1.890625 -3.082031 1.890625 -2.5625 L 1.890625 -0.453125 L 2.578125 -0.453125 L 2.578125 0 L 0.359375 0 L 0.359375 -0.453125 L 1.078125 -0.453125 L 1.078125 -4.15625 L 0.328125 -4.15625 L 0.328125 -4.609375 L 1.890625 -4.609375 L 1.890625 -3.796875 C 2.035156 -4.097656 2.222656 -4.328125 2.453125 -4.484375 C 2.679688 -4.648438 2.9375 -4.734375 3.21875 -4.734375 C 3.582031 -4.734375 3.882812 -4.644531 4.125 -4.46875 C 4.363281 -4.289062 4.523438 -4.039062 4.609375 -3.71875 Z "/>
</g>
<g id="glyph-0-7">
<path d="M 0.859375 -6.046875 C 0.859375 -6.179688 0.90625 -6.296875 1 -6.390625 C 1.101562 -6.492188 1.222656 -6.546875 1.359375 -6.546875 C 1.492188 -6.546875 1.609375 -6.492188 1.703125 -6.390625 C 1.796875 -6.296875 1.84375 -6.179688 1.84375 -6.046875 C 1.84375 -5.910156 1.796875 -5.796875 1.703125 -5.703125 C 1.609375 -5.609375 1.492188 -5.5625 1.359375 -5.5625 C 1.222656 -5.5625 1.101562 -5.609375 1 -5.703125 C 0.90625 -5.796875 0.859375 -5.910156 0.859375 -6.046875 Z M 1.890625 -0.453125 L 2.640625 -0.453125 L 2.640625 0 L 0.328125 0 L 0.328125 -0.453125 L 1.078125 -0.453125 L 1.078125 -4.15625 L 0.328125 -4.15625 L 0.328125 -4.609375 L 1.890625 -4.609375 Z "/>
</g>
<g id="glyph-0-8">
<path d="M 0.5 -0.25 L 0.5 -1.328125 L 0.953125 -1.328125 C 0.972656 -0.984375 1.082031 -0.722656 1.28125 -0.546875 C 1.488281 -0.378906 1.789062 -0.296875 2.1875 -0.296875 C 2.539062 -0.296875 2.8125 -0.363281 3 -0.5 C 3.195312 -0.632812 3.296875 -0.832031 3.296875 -1.09375 C 3.296875 -1.289062 3.222656 -1.453125 3.078125 -1.578125 C 2.941406 -1.703125 2.65625 -1.835938 2.21875 -1.984375 L 1.640625 -2.171875 C 1.242188 -2.304688 0.957031 -2.46875 0.78125 -2.65625 C 0.601562 -2.84375 0.515625 -3.085938 0.515625 -3.390625 C 0.515625 -3.804688 0.664062 -4.132812 0.96875 -4.375 C 1.28125 -4.613281 1.707031 -4.734375 2.25 -4.734375 C 2.5 -4.734375 2.753906 -4.703125 3.015625 -4.640625 C 3.285156 -4.578125 3.566406 -4.484375 3.859375 -4.359375 L 3.859375 -3.359375 L 3.40625 -3.359375 C 3.382812 -3.660156 3.273438 -3.894531 3.078125 -4.0625 C 2.890625 -4.226562 2.625 -4.3125 2.28125 -4.3125 C 1.945312 -4.3125 1.691406 -4.25 1.515625 -4.125 C 1.347656 -4.007812 1.265625 -3.832031 1.265625 -3.59375 C 1.265625 -3.40625 1.328125 -3.25 1.453125 -3.125 C 1.585938 -3.007812 1.847656 -2.894531 2.234375 -2.78125 L 2.875 -2.578125 C 3.3125 -2.441406 3.625 -2.269531 3.8125 -2.0625 C 4.007812 -1.863281 4.109375 -1.601562 4.109375 -1.28125 C 4.109375 -0.84375 3.941406 -0.5 3.609375 -0.25 C 3.273438 0 2.8125 0.125 2.21875 0.125 C 1.925781 0.125 1.632812 0.09375 1.34375 0.03125 C 1.0625 -0.03125 0.78125 -0.125 0.5 -0.25 Z "/>
</g>
<g id="glyph-0-9">
<path d="M 0.953125 -4.15625 L 0.25 -4.15625 L 0.25 -4.609375 L 0.953125 -4.609375 L 0.953125 -6.046875 L 1.765625 -6.046875 L 1.765625 -4.609375 L 3.265625 -4.609375 L 3.265625 -4.15625 L 1.765625 -4.15625 L 1.765625 -1.21875 C 1.765625 -0.832031 1.800781 -0.582031 1.875 -0.46875 C 1.945312 -0.351562 2.085938 -0.296875 2.296875 -0.296875 C 2.503906 -0.296875 2.65625 -0.359375 2.75 -0.484375 C 2.84375 -0.609375 2.894531 -0.804688 2.90625 -1.078125 L 3.5 -1.078125 C 3.476562 -0.660156 3.363281 -0.351562 3.15625 -0.15625 C 2.957031 0.03125 2.644531 0.125 2.21875 0.125 C 1.757812 0.125 1.429688 0.0234375 1.234375 -0.171875 C 1.046875 -0.378906 0.953125 -0.726562 0.953125 -1.21875 Z "/>
</g>
<g id="glyph-0-10">
<path d="M 4.25 -4.625 L 4.25 -3.46875 L 3.796875 -3.46875 C 3.773438 -3.695312 3.707031 -3.867188 3.59375 -3.984375 C 3.476562 -4.097656 3.316406 -4.15625 3.109375 -4.15625 C 2.710938 -4.15625 2.410156 -4.015625 2.203125 -3.734375 C 1.992188 -3.460938 1.890625 -3.070312 1.890625 -2.5625 L 1.890625 -0.453125 L 2.8125 -0.453125 L 2.8125 0 L 0.359375 0 L 0.359375 -0.453125 L 1.078125 -0.453125 L 1.078125 -4.15625 L 0.328125 -4.15625 L 0.328125 -4.609375 L 1.890625 -4.609375 L 1.890625 -3.796875 C 2.046875 -4.117188 2.242188 -4.351562 2.484375 -4.5 C 2.734375 -4.65625 3.035156 -4.734375 3.390625 -4.734375 C 3.515625 -4.734375 3.648438 -4.722656 3.796875 -4.703125 C 3.941406 -4.691406 4.09375 -4.664062 4.25 -4.625 Z "/>
</g>
<g id="glyph-0-11">
<path d="M 1.921875 0.84375 L 2.21875 0.078125 L 0.5 -4.15625 L -0.03125 -4.15625 L -0.03125 -4.609375 L 2.09375 -4.609375 L 2.09375 -4.15625 L 1.359375 -4.15625 L 2.65625 -0.984375 L 3.953125 -4.15625 L 3.265625 -4.15625 L 3.265625 -4.609375 L 5 -4.609375 L 5 -4.15625 L 4.484375 -4.15625 L 2.359375 1.046875 C 2.222656 1.398438 2.066406 1.640625 1.890625 1.765625 C 1.710938 1.898438 1.460938 1.96875 1.140625 1.96875 C 1.003906 1.96875 0.863281 1.957031 0.71875 1.9375 C 0.570312 1.914062 0.425781 1.882812 0.28125 1.84375 L 0.28125 0.953125 L 0.6875 0.953125 C 0.707031 1.148438 0.757812 1.289062 0.84375 1.375 C 0.925781 1.46875 1.054688 1.515625 1.234375 1.515625 C 1.390625 1.515625 1.515625 1.46875 1.609375 1.375 C 1.710938 1.289062 1.816406 1.113281 1.921875 0.84375 Z "/>
</g>
</g>
</defs>
<g fill="rgb(34.509804%, 76.862745%, 86.666667%)" fill-opacity="1">
<use xlink:href="#glyph-0-0" x="30" y="28.251953"/>
<use xlink:href="#glyph-0-1" x="36" y="28.251953"/>
<use xlink:href="#glyph-0-2" x="42" y="28.251953"/>
<use xlink:href="#glyph-0-3" x="45" y="28.251953"/>
<use xlink:href="#glyph-0-4" x="52" y="28.251953"/>
<use xlink:href="#glyph-0-5" x="58" y="28.251953"/>
<use xlink:href="#glyph-0-6" x="63" y="28.251953"/>
<use xlink:href="#glyph-0-7" x="71" y="28.251953"/>
<use xlink:href="#glyph-0-8" x="74" y="28.251953"/>
<use xlink:href="#glyph-0-9" x="79" y="28.251953"/>
<use xlink:href="#glyph-0-10" x="83" y="28.251953"/>
<use xlink:href="#glyph-0-11" x="87" y="28.251953"/>
</g>
</svg>
