<?xml version="1.0" encoding="UTF-8"?>
<svg xmlns="http://www.w3.org/2000/svg" xmlns:xlink="http://www.w3.org/1999/xlink" width="854" height="480" viewBox="0 0 854 480">
<defs>
<g>
<g id="glyph-0-0">
<path d="M 0.546875 0 L 0.546875 -0.609375 L 0.734375 -0.609375 C 1.054688 -0.609375 1.332031 -0.660156 1.5625 -0.765625 C 1.800781 -0.878906 1.921875 -1.148438 1.921875 -1.578125 L 1.921875 -8.71875 C 1.921875 -9.144531 1.800781 -9.414062 1.5625 -9.53125 C 1.332031 -9.644531 1.054688 -9.703125 0.734375 -9.703125 L 0.546875 -9.703125 L 0.546875 -10.3125 L 4.75 -10.3125 L 4.75 -9.703125 L 4.5625 -9.703125 C 4.238281 -9.703125 3.957031 -9.640625 3.71875 -9.515625 C 3.488281 -9.398438 3.375 -9.113281 3.375 -8.65625 L 3.375 -4.59375 L 6.359375 -8.015625 C 6.671875 -8.367188 6.878906 -8.65625 6.984375 -8.875 C 7.097656 -9.09375 7.15625 -9.269531 7.15625 -9.40625 C 7.15625 -9.53125 7.097656 -9.613281 6.984375 -9.65625 C 6.867188 -9.695312 6.691406 -9.71875 6.453125 -9.71875 L 6.453125 -10.3125 L 9.640625 -10.3125 L 9.640625 -9.71875 C 9.316406 -9.71875 9.003906 -9.597656 8.703125 -9.359375 C 8.410156 -9.117188 8.078125 -8.785156 7.703125 -8.359375 L 5.609375 -6 L 8.65625 -1.765625 C 8.9375 -1.390625 9.203125 -1.101562 9.453125 -0.90625 C 9.710938 -0.707031 9.976562 -0.609375 10.25 -0.609375 L 10.28125 -0.609375 L 10.28125 0 L 10.125 0 C 9.644531 0 9.242188 -0.015625 8.921875 -0.046875 C 8.609375 -0.0859375 8.347656 -0.15625 8.140625 -0.25 C 7.941406 -0.351562 7.757812 -0.488281 7.59375 -0.65625 C 7.4375 -0.820312 7.269531 -1.035156 7.09375 -1.296875 L 4.609375 -4.859375 L 3.375 -3.65625 L 3.375 -1.640625 C 3.375 -1.191406 3.488281 -0.90625 3.71875 -0.78125 C 3.957031 -0.664062 4.238281 -0.609375 4.5625 -0.609375 L 4.75 -0.609375 L 4.75 0 Z "/>
</g>
<g id="glyph-0-1">
<path d="M 4.140625 0.140625 C 3.085938 0.140625 2.265625 -0.203125 1.671875 -0.890625 C 1.085938 -1.585938 0.796875 -2.5625 0.796875 -3.8125 C 0.796875 -5.15625 1.070312 -6.171875 1.625 -6.859375 C 2.1875 -7.546875 2.976562 -7.890625 4 -7.890625 C 4.9375 -7.890625 5.671875 -7.597656 6.203125 -7.015625 C 6.734375 -6.441406 7 -5.582031 7 -4.4375 L 7 -3.765625 L 2.1875 -3.765625 C 2.207031 -2.710938 2.398438 -1.945312 2.765625 -1.46875 C 3.128906 -1 3.65625 -0.765625 4.34375 -0.765625 C 4.84375 -0.765625 5.269531 -0.867188 5.625 -1.078125 C 5.976562 -1.285156 6.238281 -1.519531 6.40625 -1.78125 C 6.476562 -1.75 6.539062 -1.6875 6.59375 -1.59375 C 6.65625 -1.507812 6.6875 -1.40625 6.6875 -1.28125 C 6.6875 -1.09375 6.59375 -0.882812 6.40625 -0.65625 C 6.226562 -0.4375 5.953125 -0.25 5.578125 -0.09375 C 5.203125 0.0625 4.722656 0.140625 4.140625 0.140625 Z M 5.546875 -4.546875 C 5.546875 -5.316406 5.425781 -5.9375 5.1875 -6.40625 C 4.957031 -6.875 4.550781 -7.109375 3.96875 -7.109375 C 3.4375 -7.109375 3.023438 -6.890625 2.734375 -6.453125 C 2.441406 -6.015625 2.269531 -5.378906 2.21875 -4.546875 Z "/>
</g>
<g id="glyph-0-2">
<path d="M 0.546875 2.78125 C 1.203125 2.78125 1.738281 2.65625 2.15625 2.40625 C 2.570312 2.15625 2.910156 1.816406 3.171875 1.390625 C 3.429688 0.960938 3.640625 0.476562 3.796875 -0.0625 L 1.125 -6.359375 C 1 -6.660156 0.863281 -6.863281 0.71875 -6.96875 C 0.582031 -7.070312 0.375 -7.125 0.09375 -7.125 L 0.0625 -7.125 L 0.0625 -7.734375 L 3.515625 -7.734375 L 3.515625 -7.125 L 3.484375 -7.125 C 2.898438 -7.125 2.609375 -6.894531 2.609375 -6.4375 C 2.609375 -6.269531 2.648438 -6.09375 2.734375 -5.90625 L 3.78125 -3.328125 C 3.875 -3.109375 3.96875 -2.863281 4.0625 -2.59375 C 4.15625 -2.332031 4.238281 -2.082031 4.3125 -1.84375 C 4.394531 -1.601562 4.445312 -1.398438 4.46875 -1.234375 C 4.539062 -1.515625 4.628906 -1.804688 4.734375 -2.109375 C 4.847656 -2.410156 4.953125 -2.703125 5.046875 -2.984375 L 6.015625 -5.796875 C 6.109375 -6.035156 6.15625 -6.242188 6.15625 -6.421875 C 6.15625 -6.890625 5.835938 -7.125 5.203125 -7.125 L 5.15625 -7.125 L 5.15625 -7.734375 L 8.15625 -7.734375 L 8.15625 -7.125 L 8.109375 -7.125 C 7.828125 -7.125 7.613281 -7.050781 7.46875 -6.90625 C 7.332031 -6.769531 7.179688 -6.46875 7.015625 -6 L 4.828125 0.0625 C 4.578125 0.757812 4.332031 1.328125 4.09375 1.765625 C 3.863281 2.210938 3.609375 2.554688 3.328125 2.796875 C 3.046875 3.046875 2.691406 3.21875 2.265625 3.3125 C 1.835938 3.414062 1.304688 3.46875 0.671875 3.46875 L 0.546875 3.46875 Z "/>
</g>
<g id="glyph-0-3">
</g>
<g id="glyph-0-4">
<path d="M 2.171875 0 L 2.171875 -0.609375 L 2.5 -0.609375 C 2.8125 -0.609375 3.085938 -0.660156 3.328125 -0.765625 C 3.566406 -0.878906 3.6875 -1.148438 3.6875 -1.578125 L 3.6875 -9.59375 L 2.296875 -9.59375 C 1.867188 -9.59375 1.570312 -9.472656 1.40625 -9.234375 C 1.25 -8.992188 1.148438 -8.71875 1.109375 -8.40625 L 1.046875 -7.78125 L 0.28125 -7.78125 L 0.359375 -10.3125 L 8.484375 -10.3125 L 8.5625 -7.78125 L 7.8125 -7.78125 L 7.734375 -8.40625 C 7.703125 -8.71875 7.601562 -8.992188 7.4375 -9.234375 C 7.269531 -9.472656 6.972656 -9.59375 6.546875 -9.59375 L 5.140625 -9.59375 L 5.140625 -1.640625 C 5.140625 -1.191406 5.253906 -0.90625 5.484375 -0.78125 C 5.710938 -0.664062 5.992188 -0.609375 6.328125 -0.609375 L 6.65625 -0.609375 L 6.65625 0 Z "/>
</g>
<g id="glyph-0-5">
<path d="M 2.953125 0.140625 C 2.316406 0.140625 1.785156 -0.046875 1.359375 -0.421875 C 0.929688 -0.796875 0.71875 -1.378906 0.71875 -2.171875 C 0.71875 -2.941406 0.988281 -3.507812 1.53125 -3.875 C 2.082031 -4.238281 2.910156 -4.4375 4.015625 -4.46875 L 5.21875 -4.515625 L 5.21875 -5.390625 C 5.21875 -5.734375 5.1875 -6.035156 5.125 -6.296875 C 5.0625 -6.566406 4.9375 -6.773438 4.75 -6.921875 C 4.5625 -7.078125 4.269531 -7.15625 3.875 -7.15625 C 3.507812 -7.15625 3.226562 -7.085938 3.03125 -6.953125 C 2.84375 -6.816406 2.71875 -6.628906 2.65625 -6.390625 C 2.59375 -6.160156 2.5625 -5.894531 2.5625 -5.59375 C 2.15625 -5.59375 1.847656 -5.660156 1.640625 -5.796875 C 1.429688 -5.929688 1.328125 -6.164062 1.328125 -6.5 C 1.328125 -6.832031 1.441406 -7.097656 1.671875 -7.296875 C 1.910156 -7.503906 2.226562 -7.65625 2.625 -7.75 C 3.019531 -7.84375 3.453125 -7.890625 3.921875 -7.890625 C 4.804688 -7.890625 5.46875 -7.695312 5.90625 -7.3125 C 6.34375 -6.9375 6.5625 -6.296875 6.5625 -5.390625 L 6.5625 -1.640625 C 6.5625 -1.242188 6.628906 -0.972656 6.765625 -0.828125 C 6.898438 -0.679688 7.132812 -0.609375 7.46875 -0.609375 L 7.5 -0.609375 L 7.5 0 L 5.5625 0 L 5.328125 -1.234375 L 5.21875 -1.234375 C 5.007812 -0.972656 4.804688 -0.738281 4.609375 -0.53125 C 4.421875 -0.320312 4.195312 -0.15625 3.9375 -0.03125 C 3.6875 0.0820312 3.359375 0.140625 2.953125 0.140625 Z M 3.296875 -0.75 C 3.878906 -0.75 4.34375 -0.925781 4.6875 -1.28125 C 5.039062 -1.644531 5.21875 -2.132812 5.21875 -2.75 L 5.21875 -3.921875 L 4.28125 -3.890625 C 3.46875 -3.847656 2.90625 -3.675781 2.59375 -3.375 C 2.28125 -3.082031 2.125 -2.65625 2.125 -2.09375 C 2.125 -1.195312 2.515625 -0.75 3.296875 -0.75 Z "/>
</g>
<g id="glyph-0-6">
<path d="M 0.265625 0 L 0.265625 -0.609375 L 0.375 -0.609375 C 0.695312 -0.609375 0.972656 -0.664062 1.203125 -0.78125 C 1.441406 -0.90625 1.5625 -1.191406 1.5625 -1.640625 L 1.5625 -9.390625 C 1.5625 -9.804688 1.441406 -10.070312 1.203125 -10.1875 C 0.972656 -10.300781 0.695312 -10.359375 0.375 -10.359375 L 0.265625 -10.359375 L 0.265625 -10.96875 L 2.921875 -10.96875 L 2.921875 -5.40625 C 2.921875 -5.28125 2.914062 -5.113281 2.90625 -4.90625 C 2.90625 -4.707031 2.898438 -4.503906 2.890625 -4.296875 C 2.878906 -4.097656 2.867188 -3.925781 2.859375 -3.78125 C 2.859375 -3.644531 2.859375 -3.578125 2.859375 -3.578125 L 4.65625 -5.5625 C 4.96875 -5.90625 5.175781 -6.171875 5.28125 -6.359375 C 5.394531 -6.546875 5.453125 -6.707031 5.453125 -6.84375 C 5.453125 -6.96875 5.394531 -7.046875 5.28125 -7.078125 C 5.164062 -7.109375 4.988281 -7.125 4.75 -7.125 L 4.75 -7.734375 L 7.9375 -7.734375 L 7.9375 -7.125 C 7.613281 -7.125 7.285156 -7.003906 6.953125 -6.765625 C 6.628906 -6.535156 6.28125 -6.210938 5.90625 -5.796875 L 4.890625 -4.65625 L 6.8125 -1.796875 C 7.0625 -1.410156 7.304688 -1.113281 7.546875 -0.90625 C 7.796875 -0.707031 8.085938 -0.609375 8.421875 -0.609375 L 8.453125 -0.609375 L 8.453125 0 L 8.265625 0 C 7.847656 0 7.5 -0.015625 7.21875 -0.046875 C 6.9375 -0.078125 6.703125 -0.132812 6.515625 -0.21875 C 6.328125 -0.3125 6.148438 -0.453125 5.984375 -0.640625 C 5.816406 -0.828125 5.628906 -1.082031 5.421875 -1.40625 L 3.984375 -3.671875 L 2.921875 -2.875 L 2.921875 -1.578125 C 2.921875 -1.148438 3.035156 -0.878906 3.265625 -0.765625 C 3.503906 -0.660156 3.78125 -0.609375 4.09375 -0.609375 L 4.140625 -0.609375 L 4.140625 0 Z "/>
</g>
<g id="glyph-0-7">
<path d="M 1.078125 -6.359375 C 0.972656 -6.671875 0.84375 -6.875 0.6875 -6.96875 C 0.539062 -7.070312 0.332031 -7.125 0.0625 -7.125 L 0.015625 -7.125 L 0.015625 -7.734375 L 3.578125 -7.734375 L 3.578125 -7.125 L 3.390625 -7.125 C 3.097656 -7.125 2.878906 -7.082031 2.734375 -7 C 2.597656 -6.925781 2.53125 -6.769531 2.53125 -6.53125 C 2.53125 -6.445312 2.539062 -6.347656 2.5625 -6.234375 C 2.582031 -6.117188 2.609375 -6.007812 2.640625 -5.90625 L 3.328125 -3.484375 C 3.390625 -3.253906 3.453125 -2.992188 3.515625 -2.703125 C 3.578125 -2.421875 3.632812 -2.148438 3.6875 -1.890625 C 3.75 -1.640625 3.796875 -1.429688 3.828125 -1.265625 L 3.875 -1.265625 C 3.914062 -1.503906 3.992188 -1.816406 4.109375 -2.203125 C 4.222656 -2.597656 4.34375 -2.972656 4.46875 -3.328125 L 5.96875 -7.6875 L 6.875 -7.6875 L 8.3125 -3.421875 C 8.394531 -3.191406 8.476562 -2.9375 8.5625 -2.65625 C 8.644531 -2.382812 8.71875 -2.125 8.78125 -1.875 C 8.851562 -1.632812 8.90625 -1.429688 8.9375 -1.265625 L 8.984375 -1.265625 C 9.066406 -1.753906 9.253906 -2.457031 9.546875 -3.375 L 10.265625 -5.703125 C 10.304688 -5.828125 10.335938 -5.957031 10.359375 -6.09375 C 10.378906 -6.238281 10.390625 -6.347656 10.390625 -6.421875 C 10.390625 -6.890625 10.070312 -7.125 9.4375 -7.125 L 9.34375 -7.125 L 9.34375 -7.734375 L 12.4375 -7.734375 L 12.4375 -7.125 L 12.25 -7.125 C 11.96875 -7.125 11.75 -7.054688 11.59375 -6.921875 C 11.445312 -6.796875 11.300781 -6.488281 11.15625 -6 L 9.296875 0 L 8.140625 0 L 6.171875 -6.03125 L 4.109375 0 L 2.96875 0 Z "/>
</g>
<g id="glyph-0-8">
<path d="M 3.03125 0.140625 C 2.3125 0.140625 1.734375 0.0078125 1.296875 -0.25 C 0.867188 -0.507812 0.65625 -0.890625 0.65625 -1.390625 C 0.65625 -1.648438 0.707031 -1.847656 0.8125 -1.984375 C 0.914062 -2.128906 1.035156 -2.226562 1.171875 -2.28125 C 1.316406 -2.34375 1.445312 -2.375 1.5625 -2.375 C 1.5625 -1.875 1.671875 -1.441406 1.890625 -1.078125 C 2.117188 -0.722656 2.53125 -0.546875 3.125 -0.546875 C 3.632812 -0.546875 4.023438 -0.664062 4.296875 -0.90625 C 4.566406 -1.15625 4.703125 -1.472656 4.703125 -1.859375 C 4.703125 -2.097656 4.648438 -2.296875 4.546875 -2.453125 C 4.453125 -2.609375 4.273438 -2.757812 4.015625 -2.90625 C 3.765625 -3.0625 3.40625 -3.238281 2.9375 -3.4375 C 2.4375 -3.65625 2.023438 -3.867188 1.703125 -4.078125 C 1.390625 -4.285156 1.148438 -4.523438 0.984375 -4.796875 C 0.828125 -5.078125 0.75 -5.421875 0.75 -5.828125 C 0.75 -6.484375 0.992188 -6.988281 1.484375 -7.34375 C 1.984375 -7.695312 2.644531 -7.875 3.46875 -7.875 C 4.15625 -7.875 4.675781 -7.742188 5.03125 -7.484375 C 5.394531 -7.222656 5.578125 -6.910156 5.578125 -6.546875 C 5.578125 -6.285156 5.484375 -6.070312 5.296875 -5.90625 C 5.117188 -5.75 4.863281 -5.671875 4.53125 -5.671875 C 4.53125 -6.148438 4.425781 -6.523438 4.21875 -6.796875 C 4.019531 -7.066406 3.710938 -7.203125 3.296875 -7.203125 C 2.804688 -7.203125 2.453125 -7.09375 2.234375 -6.875 C 2.023438 -6.65625 1.921875 -6.378906 1.921875 -6.046875 C 1.921875 -5.679688 2.054688 -5.398438 2.328125 -5.203125 C 2.609375 -5.003906 3.066406 -4.773438 3.703125 -4.515625 C 4.210938 -4.304688 4.625 -4.09375 4.9375 -3.875 C 5.257812 -3.664062 5.492188 -3.421875 5.640625 -3.140625 C 5.796875 -2.867188 5.875 -2.53125 5.875 -2.125 C 5.875 -1.375 5.613281 -0.804688 5.09375 -0.421875 C 4.570312 -0.046875 3.882812 0.140625 3.03125 0.140625 Z "/>
</g>
</g>
</defs>
<g fill="rgb(96.862745%, 85.098039%, 43.529412%)" fill-opacity="1">
<use xlink:href="#glyph-0-0" x="30" y="35.441406"/>
<use xlink:href="#glyph-0-1" x="40" y="35.441406"/>
<use xlink:href="#glyph-0-2" x="48" y="35.441406"/>
<use xlink:href="#glyph-0-3" x="56" y="35.441406"/>
<use xlink:href="#glyph-0-4" x="60" y="35.441406"/>
<use xlink:href="#glyph-0-5" x="68" y="35.441406"/>
<use xlink:href="#glyph-0-6" x="76" y="35.441406"/>
<use xlink:href="#glyph-0-1" x="84" y="35.441406"/>
<use xlink:href="#glyph-0-5" x="92" y="35.441406"/>
<use xlink:href="#glyph-0-7" x="100" y="35.441406"/>
<use xlink:href="#glyph-0-5" x="112" y="35.441406"/>
<use xlink:href="#glyph-0-2" x="120" y="35.441406"/>
<use xlink:href="#glyph-0-8" x="128" y="35.441406"/>
</g>
</svg>
