<?xml version="1.0" encoding="UTF-8"?>
<svg xmlns="http://www.w3.org/2000/svg" xmlns:xlink="http://www.w3.org/1999/xlink" width="854" height="480" viewBox="0 0 854 480">
<defs>
<g>
<g id="glyph-0-0">
<path d="M 1.515625 0.0625 C 1.109375 0.0625 0.800781 -0.015625 0.59375 -0.171875 C 0.394531 -0.335938 0.296875 -0.546875 0.296875 -0.796875 C 0.296875 -0.921875 0.332031 -1.019531 0.40625 -1.09375 C 0.488281 -1.164062 0.597656 -1.203125 0.734375 -1.203125 C 0.742188 -1.035156 0.773438 -0.878906 0.828125 -0.734375 C 0.890625 -0.585938 0.976562 -0.46875 1.09375 -0.375 C 1.207031 -0.28125 1.363281 -0.234375 1.5625 -0.234375 C 1.832031 -0.234375 2.046875 -0.300781 2.203125 -0.4375 C 2.359375 -0.570312 2.4375 -0.765625 2.4375 -1.015625 C 2.4375 -1.160156 2.40625 -1.285156 2.34375 -1.390625 C 2.28125 -1.492188 2.179688 -1.585938 2.046875 -1.671875 C 1.910156 -1.765625 1.722656 -1.863281 1.484375 -1.96875 C 1.109375 -2.113281 0.828125 -2.289062 0.640625 -2.5 C 0.453125 -2.707031 0.359375 -2.976562 0.359375 -3.3125 C 0.359375 -3.550781 0.414062 -3.75 0.53125 -3.90625 C 0.644531 -4.070312 0.800781 -4.195312 1 -4.28125 C 1.207031 -4.375 1.441406 -4.421875 1.703125 -4.421875 C 2.054688 -4.421875 2.332031 -4.351562 2.53125 -4.21875 C 2.738281 -4.082031 2.84375 -3.921875 2.84375 -3.734375 C 2.84375 -3.609375 2.796875 -3.507812 2.703125 -3.4375 C 2.617188 -3.375 2.503906 -3.34375 2.359375 -3.34375 C 2.359375 -3.46875 2.335938 -3.585938 2.296875 -3.703125 C 2.253906 -3.828125 2.179688 -3.925781 2.078125 -4 C 1.984375 -4.082031 1.847656 -4.125 1.671875 -4.125 C 1.429688 -4.125 1.242188 -4.054688 1.109375 -3.921875 C 0.984375 -3.796875 0.921875 -3.628906 0.921875 -3.421875 C 0.921875 -3.253906 0.953125 -3.113281 1.015625 -3 C 1.078125 -2.894531 1.175781 -2.796875 1.3125 -2.703125 C 1.445312 -2.617188 1.632812 -2.53125 1.875 -2.4375 C 2.226562 -2.289062 2.503906 -2.117188 2.703125 -1.921875 C 2.910156 -1.734375 3.015625 -1.484375 3.015625 -1.171875 C 3.015625 -0.785156 2.878906 -0.484375 2.609375 -0.265625 C 2.335938 -0.046875 1.972656 0.0625 1.515625 0.0625 Z "/>
</g>
<g id="glyph-0-1">
<path d="M 1.46875 0.0625 C 1.15625 0.0625 0.925781 -0.00390625 0.78125 -0.140625 C 0.644531 -0.285156 0.578125 -0.535156 0.578125 -0.890625 L 0.578125 -2.921875 L 0.109375 -2.921875 L 0.109375 -3.171875 C 0.179688 -3.171875 0.265625 -3.1875 0.359375 -3.21875 C 0.453125 -3.25 0.53125 -3.296875 0.59375 -3.359375 C 0.664062 -3.429688 0.722656 -3.519531 0.765625 -3.625 C 0.804688 -3.738281 0.84375 -3.875 0.875 -4.03125 L 1.15625 -4.03125 L 1.15625 -3.28125 L 1.953125 -3.28125 L 1.953125 -2.921875 L 1.15625 -2.921875 L 1.15625 -0.875 C 1.15625 -0.664062 1.195312 -0.507812 1.28125 -0.40625 C 1.363281 -0.3125 1.476562 -0.265625 1.625 -0.265625 C 1.695312 -0.265625 1.757812 -0.265625 1.8125 -0.265625 C 1.875 -0.273438 1.941406 -0.289062 2.015625 -0.3125 L 2.015625 -0.03125 C 1.960938 -0.0078125 1.878906 0.0078125 1.765625 0.03125 C 1.660156 0.0507812 1.5625 0.0625 1.46875 0.0625 Z "/>
</g>
<g id="glyph-0-2">
<path d="M 1.75 0.0625 C 1.3125 0.0625 0.96875 -0.0820312 0.71875 -0.375 C 0.46875 -0.664062 0.34375 -1.078125 0.34375 -1.609375 C 0.34375 -2.179688 0.457031 -2.609375 0.6875 -2.890625 C 0.925781 -3.179688 1.257812 -3.328125 1.6875 -3.328125 C 2.082031 -3.328125 2.394531 -3.207031 2.625 -2.96875 C 2.851562 -2.726562 2.96875 -2.363281 2.96875 -1.875 L 2.96875 -1.59375 L 0.921875 -1.59375 C 0.929688 -1.144531 1.015625 -0.820312 1.171875 -0.625 C 1.328125 -0.425781 1.550781 -0.328125 1.84375 -0.328125 C 2.050781 -0.328125 2.226562 -0.367188 2.375 -0.453125 C 2.53125 -0.546875 2.644531 -0.644531 2.71875 -0.75 C 2.738281 -0.738281 2.757812 -0.710938 2.78125 -0.671875 C 2.8125 -0.640625 2.828125 -0.597656 2.828125 -0.546875 C 2.828125 -0.460938 2.785156 -0.375 2.703125 -0.28125 C 2.628906 -0.1875 2.515625 -0.101562 2.359375 -0.03125 C 2.203125 0.03125 2 0.0625 1.75 0.0625 Z M 2.34375 -1.921875 C 2.34375 -2.242188 2.289062 -2.503906 2.1875 -2.703125 C 2.09375 -2.898438 1.925781 -3 1.6875 -3 C 1.457031 -3 1.28125 -2.90625 1.15625 -2.71875 C 1.03125 -2.539062 0.957031 -2.273438 0.9375 -1.921875 Z "/>
</g>
<g id="glyph-0-3">
<path d="M 0.109375 1.46875 L 0.109375 1.203125 L 0.15625 1.203125 C 0.289062 1.203125 0.40625 1.175781 0.5 1.125 C 0.601562 1.082031 0.65625 0.960938 0.65625 0.765625 L 0.65625 -2.609375 C 0.65625 -2.785156 0.601562 -2.894531 0.5 -2.9375 C 0.40625 -2.988281 0.289062 -3.015625 0.15625 -3.015625 L 0.078125 -3.015625 L 0.078125 -3.28125 L 1.15625 -3.28125 L 1.203125 -2.71875 L 1.234375 -2.71875 C 1.328125 -2.90625 1.445312 -3.050781 1.59375 -3.15625 C 1.738281 -3.269531 1.929688 -3.328125 2.171875 -3.328125 C 2.578125 -3.328125 2.882812 -3.191406 3.09375 -2.921875 C 3.3125 -2.648438 3.421875 -2.222656 3.421875 -1.640625 C 3.421875 -1.046875 3.3125 -0.613281 3.09375 -0.34375 C 2.882812 -0.0703125 2.578125 0.0625 2.171875 0.0625 C 1.929688 0.0625 1.738281 0.015625 1.59375 -0.078125 C 1.445312 -0.179688 1.328125 -0.3125 1.234375 -0.46875 L 1.203125 -0.46875 C 1.210938 -0.351562 1.21875 -0.226562 1.21875 -0.09375 C 1.226562 0.03125 1.234375 0.132812 1.234375 0.21875 L 1.234375 0.796875 C 1.234375 0.972656 1.28125 1.082031 1.375 1.125 C 1.476562 1.175781 1.597656 1.203125 1.734375 1.203125 L 1.75 1.203125 L 1.75 1.46875 Z M 2.078125 -0.328125 C 2.335938 -0.328125 2.523438 -0.441406 2.640625 -0.671875 C 2.765625 -0.898438 2.828125 -1.226562 2.828125 -1.65625 C 2.828125 -2.082031 2.765625 -2.398438 2.640625 -2.609375 C 2.523438 -2.828125 2.332031 -2.9375 2.0625 -2.9375 C 1.75 -2.9375 1.53125 -2.828125 1.40625 -2.609375 C 1.289062 -2.398438 1.234375 -2.078125 1.234375 -1.640625 C 1.234375 -1.222656 1.289062 -0.898438 1.40625 -0.671875 C 1.53125 -0.441406 1.753906 -0.328125 2.078125 -0.328125 Z "/>
</g>
<g id="glyph-0-4">
</g>
<g id="glyph-0-5">
<path d="M 0.59375 0 L 0.59375 -0.25 L 1 -0.25 C 1.132812 -0.25 1.25 -0.273438 1.34375 -0.328125 C 1.445312 -0.378906 1.5 -0.503906 1.5 -0.703125 L 1.5 -3.90625 C 1.34375 -3.71875 1.203125 -3.5625 1.078125 -3.4375 C 0.953125 -3.320312 0.828125 -3.265625 0.703125 -3.265625 C 0.617188 -3.265625 0.546875 -3.296875 0.484375 -3.359375 C 0.429688 -3.421875 0.40625 -3.5 0.40625 -3.59375 C 0.53125 -3.625 0.660156 -3.671875 0.796875 -3.734375 C 0.929688 -3.804688 1.097656 -3.914062 1.296875 -4.0625 L 1.71875 -4.390625 L 2.109375 -4.390625 L 2.109375 -0.703125 C 2.109375 -0.503906 2.15625 -0.378906 2.25 -0.328125 C 2.351562 -0.273438 2.472656 -0.25 2.609375 -0.25 L 2.921875 -0.25 L 2.921875 0 Z "/>
</g>
<g id="glyph-0-6">
<path d="M 0.875 -2.46875 C 0.769531 -2.46875 0.679688 -2.5 0.609375 -2.5625 C 0.535156 -2.625 0.5 -2.734375 0.5 -2.890625 C 0.5 -3.046875 0.535156 -3.15625 0.609375 -3.21875 C 0.679688 -3.28125 0.769531 -3.3125 0.875 -3.3125 C 0.976562 -3.3125 1.066406 -3.28125 1.140625 -3.21875 C 1.222656 -3.15625 1.265625 -3.046875 1.265625 -2.890625 C 1.265625 -2.734375 1.222656 -2.625 1.140625 -2.5625 C 1.066406 -2.5 0.976562 -2.46875 0.875 -2.46875 Z M 0.875 0.046875 C 0.769531 0.046875 0.679688 0.015625 0.609375 -0.046875 C 0.535156 -0.109375 0.5 -0.21875 0.5 -0.375 C 0.5 -0.53125 0.535156 -0.632812 0.609375 -0.6875 C 0.679688 -0.75 0.769531 -0.78125 0.875 -0.78125 C 0.976562 -0.78125 1.066406 -0.75 1.140625 -0.6875 C 1.222656 -0.632812 1.265625 -0.53125 1.265625 -0.375 C 1.265625 -0.21875 1.222656 -0.109375 1.140625 -0.046875 C 1.066406 0.015625 0.976562 0.046875 0.875 0.046875 Z "/>
</g>
<g id="glyph-0-7">
<path d="M 0 0 L 0 -0.25 L 0.109375 -0.25 C 0.234375 -0.25 0.320312 -0.28125 0.375 -0.34375 C 0.4375 -0.40625 0.503906 -0.535156 0.578125 -0.734375 L 1.9375 -4.359375 L 2.40625 -4.359375 L 3.796875 -0.578125 C 3.835938 -0.453125 3.890625 -0.363281 3.953125 -0.3125 C 4.015625 -0.269531 4.109375 -0.25 4.234375 -0.25 L 4.3125 -0.25 L 4.3125 0 L 2.625 0 L 2.625 -0.25 L 2.765625 -0.25 C 3.015625 -0.25 3.140625 -0.347656 3.140625 -0.546875 C 3.140625 -0.578125 3.132812 -0.609375 3.125 -0.640625 C 3.113281 -0.679688 3.097656 -0.726562 3.078125 -0.78125 L 2.84375 -1.453125 L 1.234375 -1.453125 L 1 -0.8125 C 0.96875 -0.71875 0.953125 -0.632812 0.953125 -0.5625 C 0.953125 -0.351562 1.082031 -0.25 1.34375 -0.25 L 1.484375 -0.25 L 1.484375 0 Z M 1.34375 -1.765625 L 2.734375 -1.765625 L 2.359375 -2.828125 C 2.285156 -3.015625 2.222656 -3.1875 2.171875 -3.34375 C 2.117188 -3.5 2.078125 -3.648438 2.046875 -3.796875 C 2.015625 -3.648438 1.976562 -3.507812 1.9375 -3.375 C 1.894531 -3.238281 1.835938 -3.078125 1.765625 -2.890625 Z "/>
</g>
<g id="glyph-0-8">
<path d="M 0.234375 0 L 0.234375 -0.25 L 0.3125 -0.25 C 0.445312 -0.25 0.5625 -0.273438 0.65625 -0.328125 C 0.757812 -0.378906 0.8125 -0.503906 0.8125 -0.703125 L 0.8125 -3.6875 C 0.8125 -3.863281 0.757812 -3.976562 0.65625 -4.03125 C 0.5625 -4.082031 0.445312 -4.109375 0.3125 -4.109375 L 0.234375 -4.109375 L 0.234375 -4.359375 L 1.875 -4.359375 C 2.394531 -4.359375 2.785156 -4.269531 3.046875 -4.09375 C 3.304688 -3.914062 3.4375 -3.640625 3.4375 -3.265625 C 3.4375 -2.992188 3.363281 -2.78125 3.21875 -2.625 C 3.070312 -2.476562 2.894531 -2.375 2.6875 -2.3125 L 2.6875 -2.28125 C 2.957031 -2.238281 3.179688 -2.125 3.359375 -1.9375 C 3.535156 -1.757812 3.625 -1.503906 3.625 -1.171875 C 3.625 -0.390625 3.097656 0 2.046875 0 Z M 1.84375 -2.4375 C 2.207031 -2.4375 2.453125 -2.5 2.578125 -2.625 C 2.710938 -2.757812 2.78125 -2.972656 2.78125 -3.265625 C 2.78125 -3.566406 2.707031 -3.773438 2.5625 -3.890625 C 2.425781 -4.003906 2.1875 -4.0625 1.84375 -4.0625 L 1.421875 -4.0625 L 1.421875 -2.4375 Z M 2.015625 -0.3125 C 2.367188 -0.3125 2.613281 -0.375 2.75 -0.5 C 2.894531 -0.632812 2.96875 -0.867188 2.96875 -1.203125 C 2.96875 -1.515625 2.898438 -1.742188 2.765625 -1.890625 C 2.640625 -2.046875 2.394531 -2.125 2.03125 -2.125 L 1.421875 -2.125 L 1.421875 -0.3125 Z "/>
</g>
<g id="glyph-0-9">
<path d="M 1.515625 -0.875 L 1.515625 -2 L 0.390625 -2 L 0.390625 -2.359375 L 1.515625 -2.359375 L 1.515625 -3.5 L 1.890625 -3.5 L 1.890625 -2.359375 L 3.015625 -2.359375 L 3.015625 -2 L 1.890625 -2 L 1.890625 -0.875 Z "/>
</g>
<g id="glyph-0-10">
<path d="M 2.203125 0.0625 C 1.796875 0.0625 1.453125 -0.03125 1.171875 -0.21875 C 0.898438 -0.40625 0.691406 -0.664062 0.546875 -1 C 0.410156 -1.34375 0.34375 -1.738281 0.34375 -2.1875 C 0.34375 -2.625 0.414062 -3.007812 0.5625 -3.34375 C 0.71875 -3.6875 0.941406 -3.953125 1.234375 -4.140625 C 1.523438 -4.328125 1.882812 -4.421875 2.3125 -4.421875 C 2.726562 -4.421875 3.035156 -4.351562 3.234375 -4.21875 C 3.441406 -4.09375 3.546875 -3.929688 3.546875 -3.734375 C 3.546875 -3.609375 3.492188 -3.503906 3.390625 -3.421875 C 3.285156 -3.347656 3.160156 -3.3125 3.015625 -3.3125 C 3.015625 -3.4375 2.988281 -3.554688 2.9375 -3.671875 C 2.894531 -3.796875 2.820312 -3.894531 2.71875 -3.96875 C 2.613281 -4.050781 2.472656 -4.09375 2.296875 -4.09375 C 1.835938 -4.09375 1.507812 -3.925781 1.3125 -3.59375 C 1.125 -3.269531 1.03125 -2.800781 1.03125 -2.1875 C 1.03125 -1.820312 1.070312 -1.5 1.15625 -1.21875 C 1.25 -0.945312 1.382812 -0.734375 1.5625 -0.578125 C 1.75 -0.421875 1.992188 -0.34375 2.296875 -0.34375 C 2.597656 -0.34375 2.832031 -0.394531 3 -0.5 C 3.164062 -0.601562 3.300781 -0.722656 3.40625 -0.859375 C 3.4375 -0.835938 3.460938 -0.804688 3.484375 -0.765625 C 3.503906 -0.734375 3.515625 -0.6875 3.515625 -0.625 C 3.515625 -0.519531 3.46875 -0.414062 3.375 -0.3125 C 3.28125 -0.207031 3.132812 -0.117188 2.9375 -0.046875 C 2.75 0.0234375 2.503906 0.0625 2.203125 0.0625 Z "/>
</g>
<g id="glyph-1-0">
<path d="M 0.34375 -2.21875 L 4.1875 -2.21875 L 3.609375 -3.21875 L 3.640625 -3.21875 L 4.890625 -1.984375 L 4.890625 -1.953125 L 3.640625 -0.734375 L 3.609375 -0.734375 L 4.1875 -1.734375 L 0.34375 -1.734375 Z "/>
</g>
</g>
</defs>
<g fill="rgb(100%, 100%, 100%)" fill-opacity="1">
<use xlink:href="#glyph-0-0" x="30" y="26.532227"/>
<use xlink:href="#glyph-0-1" x="33" y="26.532227"/>
<use xlink:href="#glyph-0-2" x="35" y="26.532227"/>
<use xlink:href="#glyph-0-3" x="38" y="26.532227"/>
<use xlink:href="#glyph-0-4" x="42" y="26.532227"/>
<use xlink:href="#glyph-0-5" x="44" y="26.532227"/>
<use xlink:href="#glyph-0-6" x="47" y="26.532227"/>
<use xlink:href="#glyph-0-4" x="49" y="26.532227"/>
<use xlink:href="#glyph-0-4" x="51" y="26.532227"/>
<use xlink:href="#glyph-0-7" x="53" y="26.532227"/>
<use xlink:href="#glyph-0-4" x="57" y="26.532227"/>
<use xlink:href="#glyph-0-4" x="59" y="26.532227"/>
</g>
<g fill="rgb(100%, 100%, 100%)" fill-opacity="1">
<use xlink:href="#glyph-1-0" x="61" y="26.532227"/>
</g>
<g fill="rgb(100%, 100%, 100%)" fill-opacity="1">
<use xlink:href="#glyph-0-4" x="66" y="26.532227"/>
<use xlink:href="#glyph-0-4" x="68" y="26.532227"/>
<use xlink:href="#glyph-0-8" x="70" y="26.532227"/>
<use xlink:href="#glyph-0-4" x="74" y="26.532227"/>
<use xlink:href="#glyph-0-9" x="76" y="26.532227"/>
<use xlink:href="#glyph-0-4" x="79" y="26.532227"/>
<use xlink:href="#glyph-0-10" x="81" y="26.532227"/>
</g>
</svg>
