<?xml version="1.0" encoding="UTF-8"?>
<svg xmlns="http://www.w3.org/2000/svg" xmlns:xlink="http://www.w3.org/1999/xlink" width="854" height="480" viewBox="0 0 854 480">
<defs>
<g>
<g id="glyph-0-0">
<path d="M 2.265625 0.0625 C 1.835938 0.0625 1.476562 -0.03125 1.1875 -0.21875 C 0.90625 -0.40625 0.691406 -0.664062 0.546875 -1 C 0.410156 -1.34375 0.34375 -1.738281 0.34375 -2.1875 C 0.34375 -2.644531 0.410156 -3.039062 0.546875 -3.375 C 0.691406 -3.707031 0.90625 -3.960938 1.1875 -4.140625 C 1.476562 -4.328125 1.835938 -4.421875 2.265625 -4.421875 C 2.679688 -4.421875 3.03125 -4.328125 3.3125 -4.140625 C 3.59375 -3.960938 3.804688 -3.703125 3.953125 -3.359375 C 4.109375 -3.023438 4.1875 -2.632812 4.1875 -2.1875 C 4.1875 -1.738281 4.109375 -1.34375 3.953125 -1 C 3.804688 -0.664062 3.59375 -0.40625 3.3125 -0.21875 C 3.03125 -0.03125 2.679688 0.0625 2.265625 0.0625 Z M 2.265625 -0.265625 C 2.722656 -0.265625 3.039062 -0.429688 3.21875 -0.765625 C 3.40625 -1.109375 3.5 -1.582031 3.5 -2.1875 C 3.5 -2.789062 3.40625 -3.257812 3.21875 -3.59375 C 3.039062 -3.925781 2.722656 -4.09375 2.265625 -4.09375 C 1.816406 -4.09375 1.492188 -3.925781 1.296875 -3.59375 C 1.109375 -3.257812 1.015625 -2.789062 1.015625 -2.1875 C 1.015625 -1.582031 1.109375 -1.109375 1.296875 -0.765625 C 1.492188 -0.429688 1.816406 -0.265625 2.265625 -0.265625 Z "/>
</g>
<g id="glyph-0-1">
<path d="M 0.203125 0 L 0.203125 -0.25 L 0.21875 -0.25 C 0.351562 -0.25 0.46875 -0.273438 0.5625 -0.328125 C 0.664062 -0.378906 0.71875 -0.503906 0.71875 -0.703125 L 0.71875 -2.609375 C 0.71875 -2.785156 0.664062 -2.894531 0.5625 -2.9375 C 0.46875 -2.988281 0.351562 -3.015625 0.21875 -3.015625 L 0.203125 -3.015625 L 0.203125 -3.28125 L 1.140625 -3.28125 L 1.265625 -2.671875 L 1.296875 -2.671875 C 1.347656 -2.796875 1.398438 -2.90625 1.453125 -3 C 1.515625 -3.101562 1.597656 -3.179688 1.703125 -3.234375 C 1.804688 -3.296875 1.945312 -3.328125 2.125 -3.328125 C 2.351562 -3.328125 2.519531 -3.289062 2.625 -3.21875 C 2.726562 -3.144531 2.78125 -3.035156 2.78125 -2.890625 C 2.78125 -2.765625 2.734375 -2.660156 2.640625 -2.578125 C 2.554688 -2.492188 2.414062 -2.453125 2.21875 -2.453125 C 2.21875 -2.617188 2.191406 -2.738281 2.140625 -2.8125 C 2.097656 -2.894531 2.015625 -2.9375 1.890625 -2.9375 C 1.773438 -2.9375 1.675781 -2.890625 1.59375 -2.796875 C 1.519531 -2.703125 1.460938 -2.585938 1.421875 -2.453125 C 1.378906 -2.316406 1.347656 -2.171875 1.328125 -2.015625 C 1.304688 -1.867188 1.296875 -1.738281 1.296875 -1.625 L 1.296875 -0.671875 C 1.296875 -0.484375 1.34375 -0.363281 1.4375 -0.3125 C 1.539062 -0.269531 1.660156 -0.25 1.796875 -0.25 L 1.96875 -0.25 L 1.96875 0 Z "/>
</g>
<g id="glyph-0-2">
<path d="M 1.578125 0.0625 C 1.179688 0.0625 0.875 -0.0703125 0.65625 -0.34375 C 0.445312 -0.613281 0.34375 -1.039062 0.34375 -1.625 C 0.34375 -2.21875 0.445312 -2.648438 0.65625 -2.921875 C 0.875 -3.191406 1.179688 -3.328125 1.578125 -3.328125 C 1.816406 -3.328125 2.007812 -3.273438 2.15625 -3.171875 C 2.300781 -3.078125 2.421875 -2.953125 2.515625 -2.796875 L 2.546875 -2.796875 C 2.535156 -2.898438 2.523438 -3.015625 2.515625 -3.140625 C 2.515625 -3.265625 2.515625 -3.375 2.515625 -3.46875 L 2.515625 -3.96875 C 2.515625 -4.144531 2.460938 -4.257812 2.359375 -4.3125 C 2.265625 -4.363281 2.148438 -4.390625 2.015625 -4.390625 L 1.96875 -4.390625 L 1.96875 -4.640625 L 3.09375 -4.640625 L 3.09375 -0.671875 C 3.09375 -0.492188 3.140625 -0.378906 3.234375 -0.328125 C 3.335938 -0.273438 3.457031 -0.25 3.59375 -0.25 L 3.640625 -0.25 L 3.640625 0 L 2.609375 0 L 2.546875 -0.546875 L 2.515625 -0.546875 C 2.421875 -0.359375 2.300781 -0.207031 2.15625 -0.09375 C 2.007812 0.0078125 1.816406 0.0625 1.578125 0.0625 Z M 1.6875 -0.328125 C 2 -0.328125 2.210938 -0.429688 2.328125 -0.640625 C 2.453125 -0.859375 2.515625 -1.1875 2.515625 -1.625 C 2.515625 -2.050781 2.453125 -2.375 2.328125 -2.59375 C 2.210938 -2.820312 2 -2.9375 1.6875 -2.9375 C 1.414062 -2.9375 1.21875 -2.820312 1.09375 -2.59375 C 0.976562 -2.375 0.921875 -2.050781 0.921875 -1.625 C 0.921875 -1.195312 0.976562 -0.875 1.09375 -0.65625 C 1.21875 -0.4375 1.414062 -0.328125 1.6875 -0.328125 Z "/>
</g>
<g id="glyph-0-3">
<path d="M 1.75 0.0625 C 1.3125 0.0625 0.96875 -0.0820312 0.71875 -0.375 C 0.46875 -0.664062 0.34375 -1.078125 0.34375 -1.609375 C 0.34375 -2.179688 0.457031 -2.609375 0.6875 -2.890625 C 0.925781 -3.179688 1.257812 -3.328125 1.6875 -3.328125 C 2.082031 -3.328125 2.394531 -3.207031 2.625 -2.96875 C 2.851562 -2.726562 2.96875 -2.363281 2.96875 -1.875 L 2.96875 -1.59375 L 0.921875 -1.59375 C 0.929688 -1.144531 1.015625 -0.820312 1.171875 -0.625 C 1.328125 -0.425781 1.550781 -0.328125 1.84375 -0.328125 C 2.050781 -0.328125 2.226562 -0.367188 2.375 -0.453125 C 2.53125 -0.546875 2.644531 -0.644531 2.71875 -0.75 C 2.738281 -0.738281 2.757812 -0.710938 2.78125 -0.671875 C 2.8125 -0.640625 2.828125 -0.597656 2.828125 -0.546875 C 2.828125 -0.460938 2.785156 -0.375 2.703125 -0.28125 C 2.628906 -0.1875 2.515625 -0.101562 2.359375 -0.03125 C 2.203125 0.03125 2 0.0625 1.75 0.0625 Z M 2.34375 -1.921875 C 2.34375 -2.242188 2.289062 -2.503906 2.1875 -2.703125 C 2.09375 -2.898438 1.925781 -3 1.6875 -3 C 1.457031 -3 1.28125 -2.90625 1.15625 -2.71875 C 1.03125 -2.539062 0.957031 -2.273438 0.9375 -1.921875 Z "/>
</g>
</g>
</defs>
<g fill="rgb(96.862745%, 85.098039%, 43.529412%)" fill-opacity="1">
<use xlink:href="#glyph-0-0" x="30" y="26.532227"/>
<use xlink:href="#glyph-0-1" x="35" y="26.532227"/>
<use xlink:href="#glyph-0-2" x="38" y="26.532227"/>
<use xlink:href="#glyph-0-3" x="42" y="26.532227"/>
<use xlink:href="#glyph-0-1" x="45" y="26.532227"/>
</g>
</svg>
