<?xml version="1.0" encoding="UTF-8"?>
<svg xmlns="http://www.w3.org/2000/svg" xmlns:xlink="http://www.w3.org/1999/xlink" width="854" height="480" viewBox="0 0 854 480">
<defs>
<g>
<g id="glyph-0-0">
<path d="M 6.421875 0.171875 C 5.242188 0.171875 4.25 -0.0976562 3.4375 -0.640625 C 2.632812 -1.179688 2.03125 -1.941406 1.625 -2.921875 C 1.21875 -3.898438 1.015625 -5.046875 1.015625 -6.359375 C 1.015625 -7.640625 1.226562 -8.769531 1.65625 -9.75 C 2.09375 -10.726562 2.734375 -11.492188 3.578125 -12.046875 C 4.429688 -12.597656 5.476562 -12.875 6.71875 -12.875 C 7.925781 -12.875 8.828125 -12.679688 9.421875 -12.296875 C 10.015625 -11.921875 10.3125 -11.445312 10.3125 -10.875 C 10.3125 -10.5 10.160156 -10.195312 9.859375 -9.96875 C 9.566406 -9.75 9.203125 -9.640625 8.765625 -9.640625 C 8.765625 -10.003906 8.695312 -10.359375 8.5625 -10.703125 C 8.4375 -11.054688 8.222656 -11.347656 7.921875 -11.578125 C 7.617188 -11.816406 7.207031 -11.9375 6.6875 -11.9375 C 5.34375 -11.9375 4.390625 -11.453125 3.828125 -10.484375 C 3.265625 -9.515625 2.984375 -8.140625 2.984375 -6.359375 C 2.984375 -5.304688 3.109375 -4.375 3.359375 -3.5625 C 3.617188 -2.75 4.019531 -2.117188 4.5625 -1.671875 C 5.113281 -1.222656 5.820312 -1 6.6875 -1 C 7.550781 -1 8.226562 -1.148438 8.71875 -1.453125 C 9.207031 -1.753906 9.601562 -2.101562 9.90625 -2.5 C 10 -2.445312 10.078125 -2.363281 10.140625 -2.25 C 10.203125 -2.132812 10.234375 -1.988281 10.234375 -1.8125 C 10.234375 -1.519531 10.097656 -1.21875 9.828125 -0.90625 C 9.554688 -0.59375 9.140625 -0.332031 8.578125 -0.125 C 8.015625 0.0703125 7.296875 0.171875 6.421875 0.171875 Z "/>
</g>
<g id="glyph-0-1">
<path d="M 0.3125 0 L 0.3125 -0.75 L 0.46875 -0.75 C 0.863281 -0.75 1.203125 -0.820312 1.484375 -0.96875 C 1.773438 -1.113281 1.921875 -1.46875 1.921875 -2.03125 L 1.921875 -11.5625 C 1.921875 -12.082031 1.773438 -12.410156 1.484375 -12.546875 C 1.191406 -12.691406 0.851562 -12.765625 0.46875 -12.765625 L 0.3125 -12.765625 L 0.3125 -13.515625 L 3.59375 -13.515625 L 3.59375 -9.609375 C 3.59375 -9.390625 3.585938 -9.164062 3.578125 -8.9375 C 3.566406 -8.707031 3.550781 -8.507812 3.53125 -8.34375 C 3.519531 -8.175781 3.515625 -8.09375 3.515625 -8.09375 L 3.609375 -8.09375 C 4.148438 -9.164062 5.019531 -9.703125 6.21875 -9.703125 C 7.238281 -9.703125 8.019531 -9.425781 8.5625 -8.875 C 9.101562 -8.332031 9.375 -7.445312 9.375 -6.21875 L 9.375 -2.03125 C 9.375 -1.46875 9.5 -1.113281 9.75 -0.96875 C 10.007812 -0.820312 10.335938 -0.75 10.734375 -0.75 L 10.796875 -0.75 L 10.796875 0 L 7.703125 0 L 7.703125 -6.140625 C 7.703125 -6.910156 7.554688 -7.507812 7.265625 -7.9375 C 6.972656 -8.363281 6.46875 -8.578125 5.75 -8.578125 C 5.007812 -8.578125 4.460938 -8.3125 4.109375 -7.78125 C 3.765625 -7.257812 3.59375 -6.5625 3.59375 -5.6875 L 3.59375 -1.9375 C 3.59375 -1.414062 3.738281 -1.085938 4.03125 -0.953125 C 4.320312 -0.816406 4.660156 -0.75 5.046875 -0.75 L 5.109375 -0.75 L 5.109375 0 Z "/>
</g>
<g id="glyph-0-2">
<path d="M 5.109375 0.171875 C 3.816406 0.171875 2.804688 -0.25 2.078125 -1.09375 C 1.347656 -1.945312 0.984375 -3.144531 0.984375 -4.6875 C 0.984375 -6.351562 1.328125 -7.601562 2.015625 -8.4375 C 2.703125 -9.28125 3.671875 -9.703125 4.921875 -9.703125 C 6.078125 -9.703125 6.984375 -9.347656 7.640625 -8.640625 C 8.296875 -7.929688 8.625 -6.867188 8.625 -5.453125 L 8.625 -4.640625 L 2.703125 -4.640625 C 2.722656 -3.347656 2.957031 -2.40625 3.40625 -1.8125 C 3.851562 -1.226562 4.503906 -0.9375 5.359375 -0.9375 C 5.972656 -0.9375 6.492188 -1.0625 6.921875 -1.3125 C 7.359375 -1.570312 7.679688 -1.863281 7.890625 -2.1875 C 7.972656 -2.15625 8.050781 -2.082031 8.125 -1.96875 C 8.195312 -1.863281 8.234375 -1.734375 8.234375 -1.578125 C 8.234375 -1.347656 8.117188 -1.09375 7.890625 -0.8125 C 7.671875 -0.539062 7.328125 -0.304688 6.859375 -0.109375 C 6.398438 0.078125 5.816406 0.171875 5.109375 0.171875 Z M 6.828125 -5.59375 C 6.828125 -6.550781 6.679688 -7.316406 6.390625 -7.890625 C 6.097656 -8.460938 5.597656 -8.75 4.890625 -8.75 C 4.234375 -8.75 3.722656 -8.476562 3.359375 -7.9375 C 3.003906 -7.394531 2.796875 -6.613281 2.734375 -5.59375 Z "/>
</g>
<g id="glyph-0-3">
<path d="M 0.5 0 L 0.5 -0.75 L 0.734375 -0.75 C 1.128906 -0.75 1.453125 -0.820312 1.703125 -0.96875 C 1.960938 -1.113281 2.09375 -1.46875 2.09375 -2.03125 L 2.09375 -7.578125 C 2.09375 -8.097656 1.960938 -8.425781 1.703125 -8.5625 C 1.441406 -8.707031 1.117188 -8.78125 0.734375 -8.78125 L 0.671875 -8.78125 L 0.671875 -9.53125 L 3.46875 -9.53125 L 3.703125 -8.09375 L 3.78125 -8.09375 C 4.144531 -8.757812 4.546875 -9.191406 4.984375 -9.390625 C 5.429688 -9.597656 5.925781 -9.703125 6.46875 -9.703125 C 7.039062 -9.703125 7.554688 -9.582031 8.015625 -9.34375 C 8.484375 -9.101562 8.828125 -8.6875 9.046875 -8.09375 L 9.1875 -8.09375 C 9.539062 -8.757812 9.957031 -9.191406 10.4375 -9.390625 C 10.925781 -9.597656 11.441406 -9.703125 11.984375 -9.703125 C 12.898438 -9.703125 13.613281 -9.425781 14.125 -8.875 C 14.632812 -8.332031 14.890625 -7.445312 14.890625 -6.21875 L 14.890625 -2.03125 C 14.890625 -1.46875 15.015625 -1.113281 15.265625 -0.96875 C 15.515625 -0.820312 15.84375 -0.75 16.25 -0.75 L 16.3125 -0.75 L 16.3125 0 L 13.21875 0 L 13.21875 -6.140625 C 13.21875 -6.910156 13.078125 -7.507812 12.796875 -7.9375 C 12.515625 -8.363281 12.03125 -8.578125 11.34375 -8.578125 C 10.851562 -8.578125 10.460938 -8.453125 10.171875 -8.203125 C 9.890625 -7.960938 9.6875 -7.640625 9.5625 -7.234375 C 9.4375 -6.828125 9.375 -6.390625 9.375 -5.921875 L 9.375 -2.03125 C 9.375 -1.46875 9.5 -1.113281 9.75 -0.96875 C 10.007812 -0.820312 10.335938 -0.75 10.734375 -0.75 L 10.796875 -0.75 L 10.796875 0 L 7.703125 0 L 7.703125 -6.140625 C 7.703125 -6.910156 7.5625 -7.507812 7.28125 -7.9375 C 7 -8.363281 6.515625 -8.578125 5.828125 -8.578125 C 5.316406 -8.578125 4.910156 -8.441406 4.609375 -8.171875 C 4.304688 -7.898438 4.085938 -7.546875 3.953125 -7.109375 C 3.828125 -6.671875 3.765625 -6.195312 3.765625 -5.6875 L 3.765625 -1.9375 C 3.765625 -1.414062 3.910156 -1.085938 4.203125 -0.953125 C 4.492188 -0.816406 4.835938 -0.75 5.234375 -0.75 L 5.28125 -0.75 L 5.28125 0 Z "/>
</g>
<g id="glyph-0-4">
<path d="M 2.859375 -11.3125 C 2.578125 -11.3125 2.335938 -11.394531 2.140625 -11.5625 C 1.941406 -11.726562 1.84375 -12.007812 1.84375 -12.40625 C 1.84375 -12.820312 1.941406 -13.109375 2.140625 -13.265625 C 2.335938 -13.429688 2.578125 -13.515625 2.859375 -13.515625 C 3.128906 -13.515625 3.363281 -13.429688 3.5625 -13.265625 C 3.769531 -13.109375 3.875 -12.820312 3.875 -12.40625 C 3.875 -12.007812 3.769531 -11.726562 3.5625 -11.5625 C 3.363281 -11.394531 3.128906 -11.3125 2.859375 -11.3125 Z M 0.40625 0 L 0.40625 -0.75 L 0.640625 -0.75 C 1.035156 -0.75 1.375 -0.816406 1.65625 -0.953125 C 1.945312 -1.085938 2.09375 -1.414062 2.09375 -1.9375 L 2.09375 -7.578125 C 2.09375 -8.097656 1.945312 -8.425781 1.65625 -8.5625 C 1.375 -8.707031 1.035156 -8.78125 0.640625 -8.78125 L 0.59375 -8.78125 L 0.59375 -9.53125 L 3.765625 -9.53125 L 3.765625 -2.03125 C 3.765625 -1.46875 3.90625 -1.113281 4.1875 -0.96875 C 4.476562 -0.820312 4.828125 -0.75 5.234375 -0.75 L 5.453125 -0.75 L 5.453125 0 Z "/>
</g>
<g id="glyph-0-5">
<path d="M 5.03125 0.171875 C 4.25 0.171875 3.550781 0.0078125 2.9375 -0.3125 C 2.332031 -0.644531 1.851562 -1.171875 1.5 -1.890625 C 1.15625 -2.609375 0.984375 -3.550781 0.984375 -4.71875 C 0.984375 -5.976562 1.15625 -6.972656 1.5 -7.703125 C 1.851562 -8.429688 2.328125 -8.945312 2.921875 -9.25 C 3.523438 -9.550781 4.195312 -9.703125 4.9375 -9.703125 C 5.4375 -9.703125 5.921875 -9.632812 6.390625 -9.5 C 6.867188 -9.375 7.257812 -9.175781 7.5625 -8.90625 C 7.875 -8.644531 8.03125 -8.304688 8.03125 -7.890625 C 8.03125 -7.492188 7.894531 -7.207031 7.625 -7.03125 C 7.363281 -6.863281 6.972656 -6.78125 6.453125 -6.78125 C 6.453125 -7.332031 6.347656 -7.804688 6.140625 -8.203125 C 5.929688 -8.609375 5.53125 -8.8125 4.9375 -8.8125 C 4.488281 -8.8125 4.09375 -8.691406 3.75 -8.453125 C 3.414062 -8.222656 3.15625 -7.8125 2.96875 -7.21875 C 2.789062 -6.625 2.703125 -5.796875 2.703125 -4.734375 C 2.703125 -3.472656 2.910156 -2.53125 3.328125 -1.90625 C 3.753906 -1.289062 4.441406 -0.984375 5.390625 -0.984375 C 5.941406 -0.984375 6.421875 -1.097656 6.828125 -1.328125 C 7.242188 -1.554688 7.550781 -1.851562 7.75 -2.21875 C 7.957031 -2.050781 8.0625 -1.820312 8.0625 -1.53125 C 8.0625 -1.257812 7.945312 -0.992188 7.71875 -0.734375 C 7.488281 -0.472656 7.148438 -0.253906 6.703125 -0.078125 C 6.265625 0.0859375 5.707031 0.171875 5.03125 0.171875 Z "/>
</g>
<g id="glyph-0-6">
<path d="M 3.640625 0.171875 C 2.847656 0.171875 2.191406 -0.0546875 1.671875 -0.515625 C 1.148438 -0.972656 0.890625 -1.691406 0.890625 -2.671875 C 0.890625 -3.617188 1.222656 -4.316406 1.890625 -4.765625 C 2.554688 -5.210938 3.570312 -5.460938 4.9375 -5.515625 L 6.421875 -5.5625 L 6.421875 -6.625 C 6.421875 -7.050781 6.382812 -7.425781 6.3125 -7.75 C 6.238281 -8.082031 6.082031 -8.34375 5.84375 -8.53125 C 5.613281 -8.71875 5.253906 -8.8125 4.765625 -8.8125 C 4.316406 -8.8125 3.972656 -8.726562 3.734375 -8.5625 C 3.492188 -8.40625 3.332031 -8.179688 3.25 -7.890625 C 3.175781 -7.597656 3.140625 -7.257812 3.140625 -6.875 C 2.648438 -6.875 2.273438 -6.957031 2.015625 -7.125 C 1.765625 -7.300781 1.640625 -7.59375 1.640625 -8 C 1.640625 -8.414062 1.78125 -8.75 2.0625 -9 C 2.351562 -9.25 2.742188 -9.425781 3.234375 -9.53125 C 3.722656 -9.644531 4.257812 -9.703125 4.84375 -9.703125 C 5.925781 -9.703125 6.738281 -9.472656 7.28125 -9.015625 C 7.820312 -8.554688 8.09375 -7.757812 8.09375 -6.625 L 8.09375 -2.03125 C 8.09375 -1.53125 8.175781 -1.191406 8.34375 -1.015625 C 8.507812 -0.835938 8.789062 -0.75 9.1875 -0.75 L 9.25 -0.75 L 9.25 0 L 6.84375 0 L 6.5625 -1.53125 L 6.421875 -1.53125 C 6.171875 -1.195312 5.925781 -0.898438 5.6875 -0.640625 C 5.445312 -0.390625 5.171875 -0.191406 4.859375 -0.046875 C 4.546875 0.0976562 4.140625 0.171875 3.640625 0.171875 Z M 4.046875 -0.921875 C 4.773438 -0.921875 5.351562 -1.144531 5.78125 -1.59375 C 6.207031 -2.039062 6.421875 -2.640625 6.421875 -3.390625 L 6.421875 -4.84375 L 5.28125 -4.78125 C 4.269531 -4.738281 3.570312 -4.535156 3.1875 -4.171875 C 2.800781 -3.804688 2.609375 -3.273438 2.609375 -2.578125 C 2.609375 -1.472656 3.085938 -0.921875 4.046875 -0.921875 Z "/>
</g>
<g id="glyph-0-7">
<path d="M 0.234375 0 L 0.234375 -0.75 L 0.46875 -0.75 C 0.863281 -0.75 1.203125 -0.820312 1.484375 -0.96875 C 1.773438 -1.113281 1.921875 -1.46875 1.921875 -2.03125 L 1.921875 -11.5625 C 1.921875 -12.082031 1.773438 -12.410156 1.484375 -12.546875 C 1.191406 -12.691406 0.851562 -12.765625 0.46875 -12.765625 L 0.234375 -12.765625 L 0.234375 -13.515625 L 3.59375 -13.515625 L 3.59375 -2.03125 C 3.59375 -1.46875 3.734375 -1.113281 4.015625 -0.96875 C 4.304688 -0.820312 4.648438 -0.75 5.046875 -0.75 L 5.28125 -0.75 L 5.28125 0 Z "/>
</g>
<g id="glyph-0-8">
</g>
<g id="glyph-0-9">
<path d="M 0.671875 0 L 0.671875 -0.75 L 0.90625 -0.75 C 1.300781 -0.75 1.640625 -0.816406 1.921875 -0.953125 C 2.210938 -1.085938 2.359375 -1.414062 2.359375 -1.9375 L 2.359375 -10.734375 C 2.359375 -11.253906 2.210938 -11.585938 1.921875 -11.734375 C 1.640625 -11.878906 1.300781 -11.953125 0.90625 -11.953125 L 0.671875 -11.953125 L 0.671875 -12.703125 L 5.84375 -12.703125 L 5.84375 -11.953125 L 5.625 -11.953125 C 5.21875 -11.953125 4.867188 -11.875 4.578125 -11.71875 C 4.296875 -11.570312 4.15625 -11.222656 4.15625 -10.671875 L 4.15625 -5.65625 L 7.84375 -9.875 C 8.21875 -10.3125 8.472656 -10.660156 8.609375 -10.921875 C 8.742188 -11.191406 8.8125 -11.410156 8.8125 -11.578125 C 8.8125 -11.734375 8.738281 -11.835938 8.59375 -11.890625 C 8.457031 -11.941406 8.242188 -11.96875 7.953125 -11.96875 L 7.953125 -12.703125 L 11.875 -12.703125 L 11.875 -11.96875 C 11.46875 -11.96875 11.082031 -11.816406 10.71875 -11.515625 C 10.363281 -11.222656 9.957031 -10.816406 9.5 -10.296875 L 6.921875 -7.390625 L 10.671875 -2.171875 C 11.015625 -1.703125 11.34375 -1.347656 11.65625 -1.109375 C 11.96875 -0.867188 12.289062 -0.75 12.625 -0.75 L 12.65625 -0.75 L 12.65625 0 L 12.46875 0 C 11.875 0 11.382812 -0.0195312 11 -0.0625 C 10.613281 -0.113281 10.289062 -0.195312 10.03125 -0.3125 C 9.78125 -0.4375 9.554688 -0.601562 9.359375 -0.8125 C 9.160156 -1.019531 8.953125 -1.28125 8.734375 -1.59375 L 5.671875 -6 L 4.15625 -4.5 L 4.15625 -2.03125 C 4.15625 -1.46875 4.296875 -1.113281 4.578125 -0.96875 C 4.867188 -0.820312 5.21875 -0.75 5.625 -0.75 L 5.84375 -0.75 L 5.84375 0 Z "/>
</g>
<g id="glyph-0-10">
<path d="M 0.5 0 L 0.5 -0.75 L 0.640625 -0.75 C 1.046875 -0.75 1.390625 -0.820312 1.671875 -0.96875 C 1.953125 -1.113281 2.09375 -1.46875 2.09375 -2.03125 L 2.09375 -7.578125 C 2.09375 -8.097656 1.953125 -8.425781 1.671875 -8.5625 C 1.398438 -8.707031 1.066406 -8.78125 0.671875 -8.78125 L 0.59375 -8.78125 L 0.59375 -9.53125 L 3.46875 -9.53125 L 3.703125 -8.09375 L 3.78125 -8.09375 C 4.15625 -8.757812 4.566406 -9.191406 5.015625 -9.390625 C 5.472656 -9.597656 5.988281 -9.703125 6.5625 -9.703125 C 7.5 -9.703125 8.226562 -9.425781 8.75 -8.875 C 9.28125 -8.332031 9.546875 -7.445312 9.546875 -6.21875 L 9.546875 -2.03125 C 9.546875 -1.46875 9.664062 -1.113281 9.90625 -0.96875 C 10.15625 -0.820312 10.476562 -0.75 10.875 -0.75 L 10.96875 -0.75 L 10.96875 0 L 7.875 0 L 7.875 -6.140625 C 7.875 -6.910156 7.726562 -7.507812 7.4375 -7.9375 C 7.144531 -8.363281 6.640625 -8.578125 5.921875 -8.578125 C 5.390625 -8.578125 4.960938 -8.441406 4.640625 -8.171875 C 4.328125 -7.898438 4.101562 -7.546875 3.96875 -7.109375 C 3.832031 -6.671875 3.765625 -6.195312 3.765625 -5.6875 L 3.765625 -1.9375 C 3.765625 -1.414062 3.90625 -1.085938 4.1875 -0.953125 C 4.46875 -0.816406 4.800781 -0.75 5.1875 -0.75 L 5.28125 -0.75 L 5.28125 0 Z "/>
</g>
<g id="glyph-0-11">
<path d="M 4.265625 0.171875 C 3.367188 0.171875 2.710938 -0.03125 2.296875 -0.4375 C 1.890625 -0.84375 1.6875 -1.554688 1.6875 -2.578125 L 1.6875 -8.515625 L 0.34375 -8.515625 L 0.34375 -9.234375 C 0.550781 -9.234375 0.785156 -9.273438 1.046875 -9.359375 C 1.304688 -9.453125 1.53125 -9.597656 1.71875 -9.796875 C 1.925781 -10.015625 2.09375 -10.273438 2.21875 -10.578125 C 2.351562 -10.890625 2.460938 -11.269531 2.546875 -11.71875 L 3.359375 -11.71875 L 3.359375 -9.53125 L 5.6875 -9.53125 L 5.6875 -8.515625 L 3.359375 -8.515625 L 3.359375 -2.53125 C 3.359375 -1.925781 3.484375 -1.476562 3.734375 -1.1875 C 3.984375 -0.90625 4.3125 -0.765625 4.71875 -0.765625 C 4.925781 -0.765625 5.117188 -0.773438 5.296875 -0.796875 C 5.472656 -0.816406 5.65625 -0.847656 5.84375 -0.890625 L 5.84375 -0.109375 C 5.695312 -0.0351562 5.46875 0.0234375 5.15625 0.078125 C 4.84375 0.140625 4.546875 0.171875 4.265625 0.171875 Z "/>
</g>
<g id="glyph-0-12">
<path d="M 3.734375 0.171875 C 2.847656 0.171875 2.132812 0.015625 1.59375 -0.296875 C 1.0625 -0.617188 0.796875 -1.085938 0.796875 -1.703125 C 0.796875 -2.023438 0.859375 -2.273438 0.984375 -2.453125 C 1.117188 -2.628906 1.269531 -2.753906 1.4375 -2.828125 C 1.613281 -2.898438 1.773438 -2.9375 1.921875 -2.9375 C 1.921875 -2.320312 2.054688 -1.789062 2.328125 -1.34375 C 2.609375 -0.894531 3.113281 -0.671875 3.84375 -0.671875 C 4.46875 -0.671875 4.945312 -0.820312 5.28125 -1.125 C 5.625 -1.425781 5.796875 -1.816406 5.796875 -2.296875 C 5.796875 -2.585938 5.734375 -2.828125 5.609375 -3.015625 C 5.484375 -3.210938 5.265625 -3.398438 4.953125 -3.578125 C 4.640625 -3.765625 4.191406 -3.984375 3.609375 -4.234375 C 3.003906 -4.503906 2.503906 -4.765625 2.109375 -5.015625 C 1.710938 -5.273438 1.414062 -5.570312 1.21875 -5.90625 C 1.019531 -6.25 0.921875 -6.675781 0.921875 -7.1875 C 0.921875 -7.988281 1.222656 -8.601562 1.828125 -9.03125 C 2.441406 -9.46875 3.253906 -9.6875 4.265625 -9.6875 C 5.117188 -9.6875 5.765625 -9.523438 6.203125 -9.203125 C 6.640625 -8.890625 6.859375 -8.507812 6.859375 -8.0625 C 6.859375 -7.738281 6.75 -7.476562 6.53125 -7.28125 C 6.3125 -7.082031 5.992188 -6.984375 5.578125 -6.984375 C 5.578125 -7.578125 5.453125 -8.039062 5.203125 -8.375 C 4.960938 -8.707031 4.578125 -8.875 4.046875 -8.875 C 3.441406 -8.875 3.007812 -8.738281 2.75 -8.46875 C 2.488281 -8.207031 2.359375 -7.867188 2.359375 -7.453125 C 2.359375 -7.003906 2.523438 -6.65625 2.859375 -6.40625 C 3.203125 -6.164062 3.769531 -5.882812 4.5625 -5.5625 C 5.195312 -5.300781 5.707031 -5.039062 6.09375 -4.78125 C 6.488281 -4.519531 6.773438 -4.21875 6.953125 -3.875 C 7.140625 -3.53125 7.234375 -3.109375 7.234375 -2.609375 C 7.234375 -1.691406 6.910156 -1 6.265625 -0.53125 C 5.628906 -0.0625 4.785156 0.171875 3.734375 0.171875 Z "/>
</g>
</g>
</defs>
<g fill="rgb(100%, 100%, 100%)" fill-opacity="1">
<use xlink:href="#glyph-0-0" x="30" y="39.003906"/>
<use xlink:href="#glyph-0-1" x="41" y="39.003906"/>
<use xlink:href="#glyph-0-2" x="52" y="39.003906"/>
<use xlink:href="#glyph-0-3" x="62" y="39.003906"/>
<use xlink:href="#glyph-0-4" x="79" y="39.003906"/>
<use xlink:href="#glyph-0-5" x="85" y="39.003906"/>
<use xlink:href="#glyph-0-6" x="94" y="39.003906"/>
<use xlink:href="#glyph-0-7" x="104" y="39.003906"/>
<use xlink:href="#glyph-0-8" x="110" y="39.003906"/>
<use xlink:href="#glyph-0-9" x="115" y="39.003906"/>
<use xlink:href="#glyph-0-4" x="127" y="39.003906"/>
<use xlink:href="#glyph-0-10" x="133" y="39.003906"/>
<use xlink:href="#glyph-0-2" x="144" y="39.003906"/>
<use xlink:href="#glyph-0-11" x="154" y="39.003906"/>
<use xlink:href="#glyph-0-4" x="160" y="39.003906"/>
<use xlink:href="#glyph-0-5" x="166" y="39.003906"/>
<use xlink:href="#glyph-0-12" x="175" y="39.003906"/>
<use xlink:href="#glyph-0-12" x="183" y="39.003906"/>
</g>
</svg>
