<?xml version="1.0" encoding="UTF-8"?>
<svg xmlns="http://www.w3.org/2000/svg" xmlns:xlink="http://www.w3.org/1999/xlink" width="854" height="480" viewBox="0 0 854 480">
<defs>
<g>
<g id="glyph-0-0">
<path d="M 12.53125 -3.421875 C 12.15625 -2.210938 11.515625 -1.296875 10.609375 -0.671875 C 9.710938 -0.0546875 8.578125 0.25 7.203125 0.25 C 6.359375 0.25 5.570312 0.109375 4.84375 -0.171875 C 4.125 -0.460938 3.484375 -0.890625 2.921875 -1.453125 C 2.265625 -2.109375 1.78125 -2.847656 1.46875 -3.671875 C 1.15625 -4.492188 1 -5.425781 1 -6.46875 C 1 -8.476562 1.578125 -10.101562 2.734375 -11.34375 C 3.898438 -12.582031 5.4375 -13.203125 7.34375 -13.203125 C 8.050781 -13.203125 8.800781 -13.109375 9.59375 -12.921875 C 10.394531 -12.734375 11.257812 -12.453125 12.1875 -12.078125 L 12.1875 -9.09375 L 11.203125 -9.09375 C 10.984375 -10.175781 10.550781 -10.972656 9.90625 -11.484375 C 9.257812 -12.003906 8.359375 -12.265625 7.203125 -12.265625 C 5.816406 -12.265625 4.765625 -11.773438 4.046875 -10.796875 C 3.335938 -9.816406 2.984375 -8.375 2.984375 -6.46875 C 2.984375 -4.570312 3.335938 -3.128906 4.046875 -2.140625 C 4.765625 -1.160156 5.816406 -0.671875 7.203125 -0.671875 C 8.160156 -0.671875 8.953125 -0.898438 9.578125 -1.359375 C 10.203125 -1.828125 10.65625 -2.515625 10.9375 -3.421875 Z "/>
</g>
<g id="glyph-0-1">
<path d="M 0.734375 0 L 0.734375 -0.921875 L 2.171875 -0.921875 L 2.171875 -12.59375 L 0.640625 -12.59375 L 0.640625 -13.515625 L 3.765625 -13.515625 L 3.765625 -7.59375 C 4.054688 -8.21875 4.4375 -8.6875 4.90625 -9 C 5.382812 -9.320312 5.9375 -9.484375 6.5625 -9.484375 C 7.582031 -9.484375 8.332031 -9.191406 8.8125 -8.609375 C 9.289062 -8.023438 9.53125 -7.113281 9.53125 -5.875 L 9.53125 -0.921875 L 10.953125 -0.921875 L 10.953125 0 L 6.546875 0 L 6.546875 -0.921875 L 7.921875 -0.921875 L 7.921875 -5.359375 C 7.921875 -6.492188 7.785156 -7.265625 7.515625 -7.671875 C 7.242188 -8.085938 6.753906 -8.296875 6.046875 -8.296875 C 5.304688 -8.296875 4.738281 -8.023438 4.34375 -7.484375 C 3.957031 -6.953125 3.765625 -6.171875 3.765625 -5.140625 L 3.765625 -0.921875 L 5.15625 -0.921875 L 5.15625 0 Z "/>
</g>
<g id="glyph-0-2">
<path d="M 9.640625 -4.453125 L 2.75 -4.453125 L 2.75 -4.375 C 2.75 -3.132812 2.984375 -2.195312 3.453125 -1.5625 C 3.921875 -0.925781 4.613281 -0.609375 5.53125 -0.609375 C 6.226562 -0.609375 6.800781 -0.789062 7.25 -1.15625 C 7.695312 -1.519531 8.015625 -2.066406 8.203125 -2.796875 L 9.484375 -2.796875 C 9.222656 -1.785156 8.75 -1.023438 8.0625 -0.515625 C 7.382812 -0.00390625 6.484375 0.25 5.359375 0.25 C 4.015625 0.25 2.929688 -0.191406 2.109375 -1.078125 C 1.296875 -1.960938 0.890625 -3.144531 0.890625 -4.625 C 0.890625 -6.082031 1.289062 -7.253906 2.09375 -8.140625 C 2.894531 -9.035156 3.953125 -9.484375 5.265625 -9.484375 C 6.660156 -9.484375 7.726562 -9.050781 8.46875 -8.1875 C 9.21875 -7.332031 9.609375 -6.085938 9.640625 -4.453125 Z M 7.75 -5.359375 C 7.71875 -6.441406 7.488281 -7.253906 7.0625 -7.796875 C 6.644531 -8.347656 6.046875 -8.625 5.265625 -8.625 C 4.523438 -8.625 3.941406 -8.347656 3.515625 -7.796875 C 3.097656 -7.242188 2.84375 -6.429688 2.75 -5.359375 Z "/>
</g>
<g id="glyph-0-3">
<path d="M 9.21875 -7.4375 C 9.519531 -8.113281 9.910156 -8.625 10.390625 -8.96875 C 10.867188 -9.3125 11.425781 -9.484375 12.0625 -9.484375 C 13.03125 -9.484375 13.75 -9.179688 14.21875 -8.578125 C 14.695312 -7.984375 14.9375 -7.082031 14.9375 -5.875 L 14.9375 -0.921875 L 16.375 -0.921875 L 16.375 0 L 11.953125 0 L 11.953125 -0.921875 L 13.34375 -0.921875 L 13.34375 -5.6875 C 13.34375 -6.632812 13.203125 -7.304688 12.921875 -7.703125 C 12.640625 -8.097656 12.175781 -8.296875 11.53125 -8.296875 C 10.820312 -8.296875 10.28125 -8.023438 9.90625 -7.484375 C 9.53125 -6.953125 9.34375 -6.171875 9.34375 -5.140625 L 9.34375 -0.921875 L 10.734375 -0.921875 L 10.734375 0 L 6.359375 0 L 6.359375 -0.921875 L 7.75 -0.921875 L 7.75 -5.75 C 7.75 -6.664062 7.609375 -7.316406 7.328125 -7.703125 C 7.054688 -8.097656 6.597656 -8.296875 5.953125 -8.296875 C 5.242188 -8.296875 4.703125 -8.023438 4.328125 -7.484375 C 3.953125 -6.953125 3.765625 -6.171875 3.765625 -5.140625 L 3.765625 -0.921875 L 5.15625 -0.921875 L 5.15625 0 L 0.734375 0 L 0.734375 -0.921875 L 2.171875 -0.921875 L 2.171875 -8.3125 L 0.640625 -8.3125 L 0.640625 -9.234375 L 3.765625 -9.234375 L 3.765625 -7.59375 C 4.054688 -8.207031 4.429688 -8.675781 4.890625 -9 C 5.347656 -9.320312 5.867188 -9.484375 6.453125 -9.484375 C 7.171875 -9.484375 7.769531 -9.300781 8.25 -8.9375 C 8.726562 -8.582031 9.050781 -8.082031 9.21875 -7.4375 Z "/>
</g>
<g id="glyph-0-4">
<path d="M 1.734375 -12.09375 C 1.734375 -12.363281 1.828125 -12.59375 2.015625 -12.78125 C 2.210938 -12.976562 2.445312 -13.078125 2.71875 -13.078125 C 2.976562 -13.078125 3.207031 -12.976562 3.40625 -12.78125 C 3.601562 -12.59375 3.703125 -12.363281 3.703125 -12.09375 C 3.703125 -11.820312 3.601562 -11.585938 3.40625 -11.390625 C 3.21875 -11.203125 2.988281 -11.109375 2.71875 -11.109375 C 2.445312 -11.109375 2.210938 -11.203125 2.015625 -11.390625 C 1.828125 -11.585938 1.734375 -11.820312 1.734375 -12.09375 Z M 3.765625 -0.921875 L 5.28125 -0.921875 L 5.28125 0 L 0.640625 0 L 0.640625 -0.921875 L 2.171875 -0.921875 L 2.171875 -8.296875 L 0.640625 -8.296875 L 0.640625 -9.234375 L 3.765625 -9.234375 Z "/>
</g>
<g id="glyph-0-5">
<path d="M 9.140625 -2.765625 C 8.910156 -1.785156 8.472656 -1.035156 7.828125 -0.515625 C 7.191406 -0.00390625 6.363281 0.25 5.34375 0.25 C 4 0.25 2.921875 -0.191406 2.109375 -1.078125 C 1.296875 -1.960938 0.890625 -3.144531 0.890625 -4.625 C 0.890625 -6.09375 1.296875 -7.269531 2.109375 -8.15625 C 2.921875 -9.039062 4 -9.484375 5.34375 -9.484375 C 5.925781 -9.484375 6.507812 -9.414062 7.09375 -9.28125 C 7.675781 -9.144531 8.257812 -8.9375 8.84375 -8.65625 L 8.84375 -6.296875 L 7.90625 -6.296875 C 7.789062 -7.109375 7.523438 -7.695312 7.109375 -8.0625 C 6.703125 -8.4375 6.117188 -8.625 5.359375 -8.625 C 4.503906 -8.625 3.851562 -8.285156 3.40625 -7.609375 C 2.96875 -6.941406 2.75 -5.945312 2.75 -4.625 C 2.75 -3.289062 2.96875 -2.285156 3.40625 -1.609375 C 3.84375 -0.941406 4.492188 -0.609375 5.359375 -0.609375 C 6.054688 -0.609375 6.609375 -0.785156 7.015625 -1.140625 C 7.421875 -1.503906 7.703125 -2.046875 7.859375 -2.765625 Z "/>
</g>
<g id="glyph-0-6">
<path d="M 7.078125 -2.90625 L 7.078125 -4.859375 L 5.015625 -4.859375 C 4.222656 -4.859375 3.632812 -4.6875 3.25 -4.34375 C 2.863281 -4 2.671875 -3.472656 2.671875 -2.765625 C 2.671875 -2.128906 2.863281 -1.617188 3.25 -1.234375 C 3.644531 -0.859375 4.179688 -0.671875 4.859375 -0.671875 C 5.523438 -0.671875 6.0625 -0.875 6.46875 -1.28125 C 6.875 -1.695312 7.078125 -2.238281 7.078125 -2.90625 Z M 8.671875 -5.765625 L 8.671875 -0.921875 L 10.09375 -0.921875 L 10.09375 0 L 7.078125 0 L 7.078125 -1 C 6.722656 -0.570312 6.3125 -0.253906 5.84375 -0.046875 C 5.382812 0.148438 4.847656 0.25 4.234375 0.25 C 3.203125 0.25 2.382812 -0.0195312 1.78125 -0.5625 C 1.1875 -1.101562 0.890625 -1.835938 0.890625 -2.765625 C 0.890625 -3.722656 1.234375 -4.460938 1.921875 -4.984375 C 2.609375 -5.515625 3.582031 -5.78125 4.84375 -5.78125 L 7.078125 -5.78125 L 7.078125 -6.421875 C 7.078125 -7.117188 6.863281 -7.660156 6.4375 -8.046875 C 6.007812 -8.429688 5.410156 -8.625 4.640625 -8.625 C 4.003906 -8.625 3.5 -8.476562 3.125 -8.1875 C 2.75 -7.894531 2.515625 -7.46875 2.421875 -6.90625 L 1.59375 -6.90625 L 1.59375 -8.765625 C 2.15625 -9.003906 2.695312 -9.179688 3.21875 -9.296875 C 3.738281 -9.421875 4.25 -9.484375 4.75 -9.484375 C 6.03125 -9.484375 7.003906 -9.164062 7.671875 -8.53125 C 8.335938 -7.894531 8.671875 -6.972656 8.671875 -5.765625 Z "/>
</g>
<g id="glyph-0-7">
<path d="M 3.640625 -0.921875 L 5.15625 -0.921875 L 5.15625 0 L 0.515625 0 L 0.515625 -0.921875 L 2.046875 -0.921875 L 2.046875 -12.59375 L 0.515625 -12.59375 L 0.515625 -13.515625 L 3.640625 -13.515625 Z "/>
</g>
<g id="glyph-0-8">
</g>
<g id="glyph-0-9">
<path d="M 0.984375 0 L 0.984375 -0.921875 L 2.625 -0.921875 L 2.625 -12.03125 L 0.984375 -12.03125 L 0.984375 -12.96875 L 6.046875 -12.96875 L 6.046875 -12.03125 L 4.390625 -12.03125 L 4.390625 -7.125 L 9.96875 -12.03125 L 8.5625 -12.03125 L 8.5625 -12.96875 L 12.875 -12.96875 L 12.875 -12.03125 L 11.421875 -12.03125 L 5.859375 -7.140625 L 12.078125 -0.921875 L 13.546875 -0.921875 L 13.546875 0 L 10.546875 0 L 4.390625 -6.15625 L 4.390625 -0.921875 L 6.046875 -0.921875 L 6.046875 0 Z "/>
</g>
<g id="glyph-0-10">
<path d="M 0.734375 0 L 0.734375 -0.921875 L 2.171875 -0.921875 L 2.171875 -8.296875 L 0.640625 -8.296875 L 0.640625 -9.234375 L 3.765625 -9.234375 L 3.765625 -7.59375 C 4.054688 -8.21875 4.4375 -8.6875 4.90625 -9 C 5.382812 -9.320312 5.9375 -9.484375 6.5625 -9.484375 C 7.582031 -9.484375 8.332031 -9.191406 8.8125 -8.609375 C 9.289062 -8.023438 9.53125 -7.113281 9.53125 -5.875 L 9.53125 -0.921875 L 10.953125 -0.921875 L 10.953125 0 L 6.546875 0 L 6.546875 -0.921875 L 7.921875 -0.921875 L 7.921875 -5.359375 C 7.921875 -6.492188 7.78125 -7.269531 7.5 -7.6875 C 7.226562 -8.101562 6.742188 -8.3125 6.046875 -8.3125 C 5.304688 -8.3125 4.738281 -8.039062 4.34375 -7.5 C 3.957031 -6.957031 3.765625 -6.171875 3.765625 -5.140625 L 3.765625 -0.921875 L 5.15625 -0.921875 L 5.15625 0 Z "/>
</g>
<g id="glyph-0-11">
<path d="M 1.921875 -8.296875 L 0.515625 -8.296875 L 0.515625 -9.234375 L 1.921875 -9.234375 L 1.921875 -12.09375 L 3.53125 -12.09375 L 3.53125 -9.234375 L 6.53125 -9.234375 L 6.53125 -8.296875 L 3.53125 -8.296875 L 3.53125 -2.4375 C 3.53125 -1.65625 3.601562 -1.15625 3.75 -0.9375 C 3.894531 -0.71875 4.171875 -0.609375 4.578125 -0.609375 C 4.992188 -0.609375 5.296875 -0.726562 5.484375 -0.96875 C 5.679688 -1.21875 5.785156 -1.617188 5.796875 -2.171875 L 7 -2.171875 C 6.957031 -1.328125 6.726562 -0.710938 6.3125 -0.328125 C 5.90625 0.0546875 5.285156 0.25 4.453125 0.25 C 3.523438 0.25 2.867188 0.046875 2.484375 -0.359375 C 2.109375 -0.765625 1.921875 -1.457031 1.921875 -2.4375 Z "/>
</g>
<g id="glyph-0-12">
<path d="M 1 -0.515625 L 1 -2.671875 L 1.921875 -2.671875 C 1.941406 -1.972656 2.15625 -1.453125 2.5625 -1.109375 C 2.96875 -0.773438 3.570312 -0.609375 4.375 -0.609375 C 5.09375 -0.609375 5.640625 -0.742188 6.015625 -1.015625 C 6.390625 -1.285156 6.578125 -1.675781 6.578125 -2.1875 C 6.578125 -2.59375 6.4375 -2.921875 6.15625 -3.171875 C 5.882812 -3.421875 5.304688 -3.6875 4.421875 -3.96875 L 3.265625 -4.359375 C 2.472656 -4.609375 1.898438 -4.925781 1.546875 -5.3125 C 1.191406 -5.695312 1.015625 -6.179688 1.015625 -6.765625 C 1.015625 -7.617188 1.320312 -8.285156 1.9375 -8.765625 C 2.5625 -9.242188 3.421875 -9.484375 4.515625 -9.484375 C 5.003906 -9.484375 5.515625 -9.414062 6.046875 -9.28125 C 6.585938 -9.15625 7.144531 -8.972656 7.71875 -8.734375 L 7.71875 -6.71875 L 6.796875 -6.71875 C 6.773438 -7.3125 6.566406 -7.773438 6.171875 -8.109375 C 5.773438 -8.453125 5.238281 -8.625 4.5625 -8.625 C 3.894531 -8.625 3.390625 -8.503906 3.046875 -8.265625 C 2.703125 -8.023438 2.53125 -7.671875 2.53125 -7.203125 C 2.53125 -6.804688 2.660156 -6.488281 2.921875 -6.25 C 3.179688 -6.019531 3.703125 -5.785156 4.484375 -5.546875 L 5.75 -5.15625 C 6.625 -4.882812 7.253906 -4.546875 7.640625 -4.140625 C 8.023438 -3.734375 8.21875 -3.207031 8.21875 -2.5625 C 8.21875 -1.6875 7.878906 -1 7.203125 -0.5 C 6.535156 0 5.617188 0.25 4.453125 0.25 C 3.847656 0.25 3.257812 0.1875 2.6875 0.0625 C 2.125 -0.0625 1.5625 -0.253906 1 -0.515625 Z "/>
</g>
</g>
</defs>
<g fill="rgb(100%, 100%, 100%)" fill-opacity="1">
<use xlink:href="#glyph-0-0" x="30" y="36.500977"/>
<use xlink:href="#glyph-0-1" x="44" y="36.500977"/>
<use xlink:href="#glyph-0-2" x="55" y="36.500977"/>
<use xlink:href="#glyph-0-3" x="66" y="36.500977"/>
<use xlink:href="#glyph-0-4" x="83" y="36.500977"/>
<use xlink:href="#glyph-0-5" x="89" y="36.500977"/>
<use xlink:href="#glyph-0-6" x="99" y="36.500977"/>
<use xlink:href="#glyph-0-7" x="110" y="36.500977"/>
<use xlink:href="#glyph-0-8" x="116" y="36.500977"/>
<use xlink:href="#glyph-0-9" x="122" y="36.500977"/>
<use xlink:href="#glyph-0-4" x="135" y="36.500977"/>
<use xlink:href="#glyph-0-10" x="141" y="36.500977"/>
<use xlink:href="#glyph-0-2" x="152" y="36.500977"/>
<use xlink:href="#glyph-0-11" x="163" y="36.500977"/>
<use xlink:href="#glyph-0-4" x="170" y="36.500977"/>
<use xlink:href="#glyph-0-5" x="176" y="36.500977"/>
<use xlink:href="#glyph-0-12" x="186" y="36.500977"/>
</g>
</svg>
